<svg width="60" height="114" fill="none" xmlns="http://www.w3.org/2000/svg"><path d="M17.24 101.606s12.77-.919 23.008 5.414c7.852 4.857 15.235 6.514 18.37 6.946a1.491 1.491 0 001.382-.412s-12.808-13.48-9.102-32.48c3.706-19 3.706-30.645-1.236-45.354-4.941-14.71-2.059-14.71 2.883-17.366 4.941-2.656 8.647-6.537 1.647-12.87-7-6.334-15.186-5.925-21.697 1.02-6.51 6.947-5.238 13.076-17.59 21.86C3.15 36.727 3.782 34.29 2.25 41.645.717 49 7.761 49.791 10.62 48.361c0 0-7.697 7.176-4.99 9.832 2.705 2.655 8.655 3.473 7.842 11.645-.813 8.172-7.387 24.822 3.768 31.768z" fill="#048738"/><path d="M15.073 102.76s13.252-2.043 23.59 4.292A48.775 48.775 0 0058.984 114s-13.307-13.896-9.565-32.902c3.743-19.005 3.743-30.654-1.247-45.368-4.99-14.714-2.08-14.714 2.91-17.37 4.991-2.657 8.734-6.54 1.664-12.875S37.41-.442 30.835 6.507c-6.576 6.948-5.291 13.079-17.765 21.866C1.198 36.737 1.837 34.3.289 41.657c-1.548 7.357 3.49 10.626 6.377 9.196 0 0-5.697 4.7-2.964 7.357 2.733 2.656 8.742 3.474 7.92 11.648-.82 8.175-7.814 25.954 3.451 32.902z" fill="url(#paint0_linear_54_81)"/><path d="M53.609 4.775A19.901 19.901 0 0046.186.546a11.859 11.859 0 00-5.459-.393 11.683 11.683 0 00-5.026 2.095c-2.072 1.578-3.83 4.06-2.906 7.755 1.911 7.645 20.524 11.441 24.674 3.901 1.157-2.392.462-5.36-3.86-9.129z" fill="#048738"/><path style="mix-blend-mode:multiply" opacity=".36" d="M52.098 4.57C48.334 1.067 44.228-.403 40.225.095c-1.597.535-7.922 3.075-6.444 9.39 1.683 7.185 18.062 10.753 21.713 3.667 1.019-2.249.407-5.038-3.396-8.58z" fill="url(#paint1_linear_54_81)"/><path style="mix-blend-mode:multiply" opacity=".36" d="M38.93 24.16c3.766-4.162-7.953 3.698-14.035 10.633-6.08 6.935-15.082 13.768-18.202 15.36A16.295 16.295 0 004.068 53c3.44-2.646 11.21-8.19 18.083-11.426 6.876-3.236 13.015-13.254 16.78-17.415z" fill="url(#paint2_linear_54_81)"/><path d="M46.655 16.814c6.04.392 9.445-5.329 4.918-9.218-4.528-3.89-14.185-4.271-13.533.305.653 4.576 5.913 6.5 10.489 6.178 4.574-.322 1.071-4.882-3.055-6.33-4.127-1.45-6.156 1.296-1.551 3.813 4.605 2.517 3.975-.23 1.91-1.602 0 0 1.017 2.478-1.871.743-2.888-1.734-1.288-3.603 2.264-1.582 3.551 2.021 4.663 4.767-.752 3.966-5.415-.8-8.81-6.922-3.776-7.436 5.035-.514 10.421 2.326 10.616 5.91.196 3.585-4.059 5.454-10.889 2.975-6.83-2.479-6.754-9.342-3.416-10.83 3.338-1.487 11.641-.8 15.647 3.7 4.005 4.499 1.25 7.728 0 8.249-1.25.52.376.75.376.75l2.82-3.204s1.16-5.262-4.538-8.313c-5.698-3.05-11.787-3.546-14.636-2.135-2.849 1.41-5.148 6.325-.232 10.865 4.916 4.54 9.21 3.196 9.21 3.196z" fill="#048738"/><path style="mix-blend-mode:multiply" opacity=".36" d="M35.933 16s5.567 3.1 1.388 4.34c-4.179 1.24-17.393 16.433-25.765 23.719-8.048 7.004-10.371 3.672-10.54 3.403 1.116 2.713 3.482 3.907 5.323 3.439.203-.072.407-.144.623-.228 9.223-3.54 22.981-18.964 28.066-23.666 5.085-4.703 15.82-9.198 15.82-9.198C44.118 20.599 35.932 16 35.932 16z" fill="url(#paint3_linear_54_81)"/><path d="M25.54 21.873c5.122-7.432 9.036-7.225 9.036-7.225C28.096 10.484 32.305 4.47 32.65 4a22.094 22.094 0 00-1.648 1.564c-6.61 7.02-5.32 13.212-17.86 22.09C1.204 36.102 1.846 33.64.29 41.071-.482 44.755.375 47.42 1.787 49c-6.383-9.612 18.631-19.697 23.752-27.127z" fill="#18D665" style="mix-blend-mode:screen"/><path d="M15.058 86.669c-.595-12.862 7.332-16.251 5.728-19.332-1.604-3.081 1.415-3.476.327-5.7-1.087-2.223-2.313-2.695-1.854-4.698.458-2.002-5.26-5.63-4.31-11.056 0 0-4.703 2.199-7.988-3.578A10.552 10.552 0 016.27 33c-1.246.832-2.158 1.447-2.849 2.003a13.963 13.963 0 001.403 9.998c3.22 5.87 6.492 3.774 6.492 3.774s-.458 2.927 2.75 5.777.382 4.277 1.719 5.95c1.336 1.674 1.26 4.832.725 7.759-.535 2.927-2.215 3.543-1.91 6.162.306 2.618-3.36 5.237-2.826 13.247A36.63 36.63 0 0015.985 103a39.811 39.811 0 013.564-.188c-1.5-2.16-4.074-7.116-4.491-16.143zm4.929-56.509c3.071 5.173 6.757 3.474 6.757 3.474s-1.996 6.41 1.69 11.197c3.685 4.787 1.244 9.034 3.31 9.73 2.065.694-1.544 2.857-.316 5.096 1.229 2.24-4.924 11.042-6.225 20a33.204 33.204 0 005.733 23.854A30.08 30.08 0 0134.883 105c-2.212-3.165-7.886-12.524-6.108-23.104 2.193-13.05 7.875-20.045 6.646-25.235-1.228-5.19 1.46-3.568-.768-5.42-2.226-1.854 1.536-1.082-2.38-6.642-3.916-5.56-2.89-12.393-1.906-14.382 0 0-4.007 2.259-7.616-2.838-3.316-4.683-.544-9.61-.072-10.379a31.502 31.502 0 01-4.118 5.233c-.384 1.578-.613 4.493 1.426 7.926z" fill="#1F9EF3" fill-opacity=".79" style="mix-blend-mode:screen"/><path d="M40.024 86.166c1.476-15.113 7.61-30.43 3.324-38.19-4.287-7.761-7.075-17.731-2.432-25.604 0 0-6.172 3.674-10.605-1.38C25.883 15.943 28.448 8.019 28.454 8a43.665 43.665 0 00-3.775 6.247c-.48 2.634-.526 6.259 1.58 9.578 3.886 6.127 9.151 2.173 9.151 2.173s-4.49 6.405 0 14.446c4.49 8.042 6.928 11.01 2.432 25.226-4.496 14.215-8.312 25.178 3.423 42.937A49.16 49.16 0 0049.831 112c-.042-.039-11.28-10.749-9.807-25.834z" fill="#1F9EF3" fill-opacity=".93" style="mix-blend-mode:screen"/><path d="M11.971 38.829c3.02 3.556 7.667 3.015 7.667 3.015s.078 7.092 3.64 10.582c3.562 3.49-.155 5.113 1.704 6.736 1.858 1.624-.62 5.632.077 7.107.697 1.475-5.73 7.66-6.35 19.258-.448 8.379 2.05 14.398 3.474 17.104a42.65 42.65 0 013.933.369c-1.415-2.725-5.938-12.441-3.767-21.571 2.555-10.747 7.124-15.772 6.195-17.55-.93-1.779 1.695-3.943.731-5.412-.963-1.47-1.66-2.242-1.04-4.64.619-2.396-7.4-8.28-4.794-15.762 0 0-4.81 3.006-8.062-.86A9.505 9.505 0 0114.139 27c-.37.267-.764.557-1.174.85-.838.6-1.607 1.14-2.325 1.637 0 0-1.689 5.786 1.331 9.342z" fill="#1F9EF3" fill-opacity=".79" style="mix-blend-mode:screen"/><path d="M32.574 97.412C22.425 89.327 9.08 108.117 9.474 84c-.867 7.221-.32 14.661 5.972 18.623 0 0 13.139-2.069 23.39 4.344A47.702 47.702 0 0058.983 114S47.561 101.813 48.97 84.615c-.004-.003-6.246 20.881-16.395 12.797z" fill="#18D665" style="mix-blend-mode:screen"/><defs><linearGradient id="paint0_linear_54_81" x1="8.126" y1="96.393" x2="85.827" y2="17.336" gradientUnits="userSpaceOnUse"><stop stop-color="#7BFFB0"/><stop offset=".348" stop-color="#01F061"/></linearGradient><linearGradient id="paint1_linear_54_81" x1="37.658" y1="16.252" x2="60.975" y2="-6.572" gradientUnits="userSpaceOnUse"><stop stop-color="#7BFFB0"/><stop offset="1" stop-color="#fff"/></linearGradient><linearGradient id="paint2_linear_54_81" x1="-13.885" y1="74.318" x2="53.874" y2="5.241" gradientUnits="userSpaceOnUse"><stop stop-color="#fff"/><stop offset="1" stop-color="#3B952A"/></linearGradient><linearGradient id="paint3_linear_54_81" x1="28.184" y1="35.131" x2="22.375" y2="29.865" gradientUnits="userSpaceOnUse"><stop stop-color="#7BFFB0"/><stop offset="1" stop-color="#fff"/></linearGradient></defs></svg>