<svg width="64" height="77" fill="none" xmlns="http://www.w3.org/2000/svg"><path d="M6.429 75.712H5.143c-1.286 0-2.443-1.037-2.572-2.332L.386 45.01C.129 42.16 0 39.31 0 36.588v-6.607c0-2.591 1.929-4.793 4.5-5.182l2.443-.389c3.986-.518 8.1-1.036 11.443-1.295 4.243-.26 6.557.13 7.714 1.295.514.518.9 1.166.9 1.943h-2.571c-.386-.388-1.415-.906-5.786-.647-3.214.13-7.329.647-11.314 1.295l-2.443.389C3.6 27.52 2.7 28.686 2.7 29.98v6.608c0 2.72.129 5.44.386 8.29L5.143 73.12h1.286v2.59zm52.533 0H57.67v-2.596h1.292l2.325-28.42c.258-2.726.388-5.58.388-8.306v-6.62c0-1.297-.905-2.465-2.197-2.595-1.033-.13-2.067-.26-2.97-.39-6.59-.778-15.245-1.946-16.924-.519v.13H37c0-.778.388-1.557.904-2.076 2.326-2.077 8.527-1.298 18.603 0 1.034.13 2.067.26 2.971.39C62.063 25.098 64 27.305 64 29.9v6.619c0 2.725-.13 5.58-.388 8.435l-2.067 28.42c-.129 1.299-1.291 2.337-2.583 2.337z" fill="#0D7CC6"/><path d="M57.455 75.712H38.236V39.246H60v33.861c0 1.433-1.145 2.605-2.545 2.605zM25.509 39.246H4v33.861c0 1.433 1.145 2.605 2.545 2.605H25.51V39.246z" fill="#01F061"/><path d="M62 41.271H38.913V26.077h19.24c2.18 0 3.847 1.646 3.847 3.799V41.27zM26.087 26.077H6.847C4.668 26.077 3 27.723 3 29.876V41.27h23.087V26.077z" fill="#7BFFB0"/><path d="M29.342 2.428c-.256 0-.511 0-.766.132-.384-.264-.767-.528-1.277-.792L25.51 3.485c1.915.793 3.958 2.907 3.83 5.55 0 1.717-2.681 10.04-4.341 14.797l1.15.396c.893.925 2.17 1.586 3.447 1.85a14.022 14.022 0 011.405-4.096c.638-4.492 1.915-8.852 3.958-12.816.383-3.699-2.043-6.738-5.618-6.738z" fill="#0D7CC6"/><path d="M35.131 4.12c-1.295-1.568-3.108-2.352-5.18-2.352h-5.18C20.496 1.768 17 5.297 17 9.61c0 2.483.518 4.313.518 4.313l1.295-.392c1.554.13 2.85.784 3.885 1.699.26 1.438.389 2.614.389 2.744l1.295-.26 1.295-.262s-.907-5.62-.907-8.104c0-2.091 1.166-3.92 3.109-4.836 1.813-.784 4.014-.392 5.31 1.046.906 1.046 1.294 2.353 1.165 3.92l2.59.262c.26-1.96-.388-4.182-1.813-5.62z" fill="#1F9EF3"/><path d="M49.315 3.867C46.463 2.57 43.48 1.533 40.37.884l-.777-.13-.519.649c-1.944 2.335-3.63 4.799-4.926 7.393A41.053 41.053 0 0030 21.766v.26h3.37c.13-1.167.26-2.335.519-3.502 2.074-2.075 4.796-3.502 7.907-3.891l1.167.648c1.685-3.242 3.889-6.355 6.74-9.079L51 4.905l-1.685-1.038z" fill="#0E80CC"/><path d="M30.105 24.53c-1.023-.128-2.047-.644-2.814-1.417-1.023-.903-1.535-2.192-1.535-3.61 0-.902-.128-1.805-.383-2.578-1.023-2.837-3.581-4.9-6.523-5.028h-.64c-4.092 0-7.673 2.965-7.161 7.348.128.774 1.407 1.031 1.535.129.127-.645 1.15-1.031 1.79-1.031.767 0 1.279.515 1.279 1.289 0 1.934.767 3.867 2.174 5.415l.895-.903c4.22-.258 7.162.129 7.162 1.934H31v-1.29c-.384-.128-.64-.128-.895-.257z" fill="#0D7CC6"/><path d="M48.494 16.86l-5.06-3.95h-.506c-.76 0-1.518 0-2.15.132-4.682.658-8.983 3.818-11.26 8.164-.759 1.448-1.265 2.897-1.518 4.477v.395h8.729c2.15-4.345 6.199-6.452 10.88-6.584.632 0 1.138-.395 1.264-.922.254-.658.127-1.317-.379-1.712z" fill="#1D92E1"/><path d="M39 25.065H24v51.66h15v-51.66z" fill="#1F9EF3"/></svg>