<svg width="184" height="55" fill="none" xmlns="http://www.w3.org/2000/svg"><path d="M2.443 35.102a.949.949 0 01-.923-.625c-.111-.307-.225-.492-.308-.476-.083.016-.12.23-.11.556a.95.95 0 01-.625.923c-.307.111-.492.225-.476.308.016.083.23.12.556.11a.949.949 0 01.923.625c.111.307.225.492.308.476.083-.016.12-.23.11-.556a.949.949 0 01.625-.923c.307-.111.492-.225.476-.308-.016-.083-.23-.12-.556-.11zM36 33.188V24h27v9.188h-9.348V55h-8.304V33.188H36zM65 24h8.469v16.228h.252L84.789 24H92v31h-8.469V38.73h-.21L72.043 55H65V24zm53.542 5.203a9.942 9.942 0 00-4.054-3.838 12.9 12.9 0 00-6.069-1.362H95V55h8.442v-9.197h4.682a13.916 13.916 0 006.229-1.318 9.934 9.934 0 004.16-3.747 10.822 10.822 0 001.483-5.753 11.234 11.234 0 00-1.454-5.782zm-7.93 8.052a3.84 3.84 0 01-1.628 1.487 5.774 5.774 0 01-2.571.529h-2.971v-8.529h2.971a6.062 6.062 0 012.571.5 3.63 3.63 0 011.628 1.444 4.894 4.894 0 010 4.57zM141.313 55l-9.594-12.525h-1.22V55H122V24h8.499v11.693h1.094L140.597 24h10.73l-11.95 14.897L152 55h-10.687zm32.435-31h-11.501L152 55h9.082l1.797-5.95h10.242l1.797 5.95H184l-10.252-31zm-8.966 18.766l3.093-10.237h.25l3.093 10.237h-6.436zM22 0h13.83v1.71H23.972v6.216h6.185c2.233 0 3.93.461 5.092 1.384a4.837 4.837 0 011.742 4.017 5.032 5.032 0 01-1.877 4.207C33.862 18.512 32.066 19 29.725 19H22V0zm7.698 17.399c1.747 0 3.066-.335 3.957-1.005a3.488 3.488 0 001.337-2.985 3.395 3.395 0 00-1.31-2.918c-.873-.642-2.202-.964-3.984-.964h-5.726V17.4h5.726zM79 0v18.81h-2.003V1.72h-9.275l-.219 6.287a37.557 37.557 0 01-.645 6.274 7.71 7.71 0 01-1.55 3.547c-.344.386-.77.69-1.25.893-.48.202-1 .296-1.521.276A6.681 6.681 0 0161 18.81l.165-1.773c.296.07.6.106.905.107a2.42 2.42 0 001.098-.236 2.37 2.37 0 00.864-.704 6.766 6.766 0 001.139-2.916c.298-1.728.473-3.474.521-5.226L65.967 0H79zm19.207 8.306C99.402 9.319 100 10.803 100 12.757c0 2.045-.634 3.597-1.902 4.655C96.829 18.471 95 19 92.609 19H85V0h1.998v6.786h6.022c2.263 0 3.992.506 5.187 1.52zm-1.615 7.926a4.263 4.263 0 001.382-3.448c0-2.913-1.806-4.37-5.42-4.37h-5.556V17.4h5.557c1.77 0 3.115-.39 4.037-1.168zM127 0v19h-23V0h1.957v17.263h8.578V0h1.957v17.263h8.551V0H127zm18.683 13.924H135.29L133.052 19H131l8.528-19h1.945L150 19h-2.078l-2.239-5.076zm-.719-1.628L140.487 2.09l-4.477 10.206h8.954zM166 0v19h-1.998v-5.754h-5.719c-.256 0-.621-.019-1.095-.055L153.165 19h-2.161l4.351-6.162a5.827 5.827 0 01-3.229-2.212 6.57 6.57 0 01-1.122-3.895c0-2.135.679-3.79 2.039-4.967C154.401.588 156.239 0 158.557 0H166zm-11.589 10.274c.921.84 2.266 1.262 4.036 1.262h5.555V1.737h-5.363c-1.789 0-3.171.42-4.146 1.262a5.367 5.367 0 00-1.464 3.622 5.37 5.37 0 001.382 3.652zm-110.283 8.42a9.625 9.625 0 01-3.77-3.582A10.325 10.325 0 0139 10c0-1.79.467-3.55 1.357-5.112a9.629 9.629 0 013.771-3.582A11.739 11.739 0 0149.498 0a11.74 11.74 0 015.374 1.292 9.66 9.66 0 013.757 3.582A10.283 10.283 0 0160 10c0 1.796-.472 3.562-1.371 5.126a9.651 9.651 0 01-3.757 3.582A11.74 11.74 0 0149.498 20a11.74 11.74 0 01-5.37-1.306zm9.672-1.601a7.692 7.692 0 003-2.921A8.569 8.569 0 0057.886 10 8.569 8.569 0 0056.8 5.83a7.694 7.694 0 00-3-2.922 9.26 9.26 0 00-4.293-1.053 9.26 9.26 0 00-4.293 1.053 7.764 7.764 0 00-3.028 2.922 8.47 8.47 0 00-1.1 4.171 8.47 8.47 0 001.1 4.171 7.761 7.761 0 003.028 2.922 9.261 9.261 0 004.293 1.053 9.261 9.261 0 004.293-1.053z" fill="#1F9EF3"/><path d="M54.713 8.546a3.838 3.838 0 00-1.992-3.297c-2.134-1.346-3.24-1.065-3.24-1.065a.66.66 0 01-.464-.784c.161-.583 1.47-.482 2.758 0 1.288.483 3.2 1.568 4.065 4.764a2.97 2.97 0 01.101 1.547s-.14.342-.805.282c-.664-.06-.403-.965-.403-.965l-.02-.482z" fill="#1F9EF3"/><path d="M13.647 34.075c.274.259-.1 1.147-.912 2.342a4.21 4.21 0 00.143 4.945c.88 1.146 1.306 2.01 1.047 2.285-.259.274-1.147-.1-2.342-.913a4.21 4.21 0 00-4.945.144c-1.146.88-2.01 1.306-2.285 1.047-.274-.259.1-1.147.913-2.342a4.21 4.21 0 00-.144-4.945c-.88-1.146-1.306-2.01-1.047-2.285.259-.274 1.147.1 2.342.912a4.21 4.21 0 004.945-.143c1.146-.88 2.01-1.306 2.285-1.047z" fill="#5AC4FF"/><path d="M17.214 39.275a1.312 1.312 0 01-1.382-.68c-.212-.397-.402-.629-.513-.591-.111.038-.12.338-.044.782a1.312 1.312 0 01-.68 1.383c-.397.21-.629.4-.591.512.038.111.338.12.782.044a1.312 1.312 0 011.383.68c.21.397.4.629.512.591.111-.038.12-.338.044-.782a1.31 1.31 0 01.68-1.383c.397-.21.629-.4.591-.512-.038-.111-.338-.12-.782-.044zm-3.078-6.82c.245-.187.482-.362.711-.524.229-.23.477-.438.741-.624a6.068 6.068 0 013.566-1.024 6.386 6.386 0 012.172.341c.6.21 1.152.537 1.622.963.453.418.814.925 1.06 1.49.264.61.422 1.26.468 1.923H33a13.88 13.88 0 00-1.372-5.1 11.64 11.64 0 00-2.984-3.765 12.93 12.93 0 00-4.334-2.337A17.557 17.557 0 0018.904 23a15.76 15.76 0 00-7.547 1.81 13.318 13.318 0 00-5.384 5.348A13.842 13.842 0 005 32.322c.19.122.382.244.584.38a7.307 7.307 0 008.552-.247zM8.53 30.218a.988.988 0 00.652-.957c-.01-.338.028-.56.115-.577.087-.017.204.176.32.493a.984.984 0 00.963.649c.339-.01.562.027.579.114.017.086-.177.204-.496.32a.988.988 0 00-.652.956c.01.338-.027.56-.114.577-.087.016-.205-.176-.321-.493a.985.985 0 00-.962-.65c-.34.011-.563-.026-.58-.113-.016-.086.177-.204.496-.32zm15.26 14.631a4.604 4.604 0 01-1.127 1.397c-.48.397-1.03.696-1.62.882a6.792 6.792 0 01-2.106.3 6.183 6.183 0 01-3.547-.988 5.287 5.287 0 01-.86-.733c-.082-.056-.16-.105-.244-.164a7.262 7.262 0 00-4.371-1.308 7.278 7.278 0 00-4.29 1.565c-.214.169-.422.326-.625.475.184.438.38.865.6 1.272a13.567 13.567 0 005.41 5.558 15.67 15.67 0 007.717 1.892 15.622 15.622 0 006.052-1.086 13.46 13.46 0 004.379-2.86 13.126 13.126 0 002.737-3.89A12.213 12.213 0 0033 43h-8.631a5.637 5.637 0 01-.58 1.849zM4.629 38.735a.633.633 0 01-.616-.417c-.074-.204-.15-.328-.205-.317-.056.01-.08.153-.073.37a.633.633 0 01-.417.616c-.204.074-.328.15-.317.205.01.056.153.08.37.073a.633.633 0 01.616.417c.074.204.15.328.205.317.056-.01.08-.153.073-.37a.633.633 0 01.417-.616c.204-.074.328-.15.317-.205-.01-.056-.153-.08-.37-.073z" fill="#1F9EF3"/></svg>