<svg width="1920" height="1837" fill="none" xmlns="http://www.w3.org/2000/svg"><path fill-rule="evenodd" clip-rule="evenodd" d="M-232.74 171.529c40.077-59.053 260.82 12.082 577.502 172.307 194.585 98.801 404.685 145.498 600.21 133.402 195.528-12.096 366.438-82.361 488.278-200.737 198.66-192.084 491.81-316.126 569.01-264.327l-20.94 875.736 16.29-1.114 8.15 937.234c-88.54 53.27-265.15-62.1-472.82-287.6-127.33-138.93-311.9-227.08-527.26-251.83-215.364-24.74-450.471 15.19-671.651 114.08-359.923 160.29-608.299 226.82-648.94 158.71-38.802-65.03-34.655-268.65 236.059-498.53L-232.74 171.529z" fill="#333"/></svg>