<svg width="30" height="31" fill="none" xmlns="http://www.w3.org/2000/svg"><path d="M12.42 2.418a2.702 2.702 0 014.183-1.377c.464.343.807.826.977 1.377l1.62 5.304c.35 1.15 1.4 1.941 2.58 1.941h5.51c2.589 0 3.699 3.332 1.639 4.933l-4.68 3.633a2.772 2.772 0 00-.94 3.002l1.73 5.693c.78 2.562-2.13 4.623-4.23 3.002l-4.17-3.242a2.669 2.669 0 00-3.279 0l-4.17 3.232c-2.1 1.631-5-.43-4.23-2.992l1.73-5.703a2.774 2.774 0 00-.94-2.992l-4.679-3.633c-2.06-1.6-.95-4.933 1.64-4.933h5.5a2.709 2.709 0 002.59-1.941l1.62-5.304z" fill="#01F061"/></svg>