<?xml version="1.0" encoding="utf-8"?><svg xmlns="http://www.w3.org/2000/svg" xmlns:xlink="http://www.w3.org/1999/xlink"><symbol viewBox="0 0 125 125" id="icon_1" xmlns="http://www.w3.org/2000/svg"><path d="M17.652 107.349c-5.516-5.515-9.837-11.888-12.963-19.119C1.563 81 0 73.524 0 65.802c0-7.72 1.471-15.35 4.413-22.887 2.942-7.537 7.723-14.615 14.342-21.233 4.29-4.29 9.592-7.966 15.905-11.03 6.313-3.064 13.79-5.484 22.433-7.261C65.734 1.614 75.603.54 86.696.174c11.094-.368 23.505.06 37.234 1.286.981 12.992 1.287 24.94.92 35.848-.368 10.908-1.379 20.743-3.034 29.506-1.655 8.762-3.984 16.422-6.988 22.979-3.003 6.557-6.711 12.041-11.124 16.453-6.497 6.496-13.392 11.245-20.685 14.247-7.294 3.003-14.74 4.504-22.341 4.504-7.968 0-15.752-1.562-23.352-4.688-7.6-3.125-14.158-7.445-19.674-12.96zm20.593-2.941c3.555 2.083 7.202 3.585 10.94 4.504a47.968 47.968 0 0011.493 1.378c5.639 0 11.216-1.133 16.732-3.4 5.517-2.268 10.788-5.914 15.814-10.939 2.206-2.206 4.443-5.3 6.71-9.283 2.269-3.983 4.23-9.192 5.885-15.626 1.655-6.434 2.911-14.217 3.769-23.347.858-9.13.981-20.008.368-32.63-6.007-.246-12.78-.338-20.318-.276-7.539.06-15.047.643-22.525 1.746-7.477 1.103-14.587 2.88-21.329 5.331-6.742 2.451-12.258 5.822-16.548 10.111-5.516 5.515-9.317 10.969-11.4 16.361-2.084 5.393-3.126 10.601-3.126 15.626 0 7.231 1.379 13.573 4.137 19.027 2.758 5.454 5.179 9.284 7.263 11.49 5.148-9.805 11.952-19.211 20.41-28.219 8.458-9.008 18.326-16.392 29.603-22.152a134.272 134.272 0 00-23.076 26.197c-6.558 9.743-11.492 21.11-14.801 34.101z"/></symbol><symbol viewBox="0 0 142 135" id="icon_2" xmlns="http://www.w3.org/2000/svg"><path d="M48.635 105.342L71 91.848l22.365 13.672-5.858-25.569 19.703-17.046-25.915-2.308L71 36.449l-10.295 23.97-25.915 2.309L54.493 79.95l-5.858 25.391zm-21.477 29.653L38.694 85.1 0 51.541l51.12-4.439L71 .048l19.88 47.054 51.12 4.44L103.305 85.1l11.537 49.895L71 108.539l-43.843 26.456z"/></symbol><symbol viewBox="0 0 142 142" id="icon_3" xmlns="http://www.w3.org/2000/svg"><path d="M66.74 120.702l30.885-60.326h-21.3V21.341l-31.95 60.327H66.74v39.034zM71 141.994c-9.822 0-19.052-1.863-27.69-5.589-8.638-3.726-16.153-8.783-22.543-15.17-6.39-6.388-11.448-13.899-15.176-22.534C1.864 90.066 0 80.84 0 71.021c0-9.817 1.864-19.043 5.591-27.678 3.728-8.635 8.786-16.146 15.176-22.534 6.39-6.387 13.905-11.444 22.543-15.17C51.948 1.913 61.178.049 71 .049c9.822 0 19.052 1.864 27.69 5.59 8.638 3.726 16.153 8.783 22.543 15.17 6.39 6.388 11.448 13.899 15.176 22.534C140.136 51.978 142 61.204 142 71.022c0 9.818-1.864 19.044-5.591 27.679-3.728 8.635-8.786 16.146-15.176 22.534-6.39 6.387-13.905 11.444-22.543 15.17-8.638 3.726-17.868 5.589-27.69 5.589zm0-14.194c15.857 0 29.287-5.501 40.293-16.501 11.005-11.001 16.507-24.427 16.507-40.277 0-15.85-5.502-29.276-16.507-40.277-11.006-11-24.436-16.5-40.293-16.5s-29.288 5.5-40.293 16.5C19.702 41.745 14.2 55.171 14.2 71.022c0 15.85 5.503 29.276 16.508 40.277C41.712 122.299 55.142 127.8 71 127.8z"/></symbol><symbol viewBox="0 0 143 99" id="icon_4" xmlns="http://www.w3.org/2000/svg"><path fill-rule="evenodd" clip-rule="evenodd" d="M28.528 91.168c-.46 2.474-1.147 5.086-2.065 7.834h22.574a57.615 57.615 0 001.652-7.696 54.3 54.3 0 00.55-7.697c0-2.914-.17-5.64-.51-8.182l-21.532 6.51c.012.37.019.744.019 1.122 0 2.932-.23 5.635-.688 8.11zm-7.443-28.1l22.09-6.677a106.514 106.514 0 00-5.425-7.968 204.056 204.056 0 01-9.222-13.333c-2.845-4.49-4.267-10.125-4.267-16.906 0-2.382.137-4.948.413-7.697.275-2.749.871-6.23 1.789-10.445H4.164C3.43 3.707 2.926 7.097 2.65 10.212a100.214 100.214 0 00-.413 8.797c0 8.797 1.377 15.99 4.13 21.579 2.753 5.59 5.873 10.675 9.36 15.256 1.894 2.49 3.68 4.898 5.358 7.225zm48.644 6.616c2.356 3.83 3.534 8.29 3.534 13.375 0 2.932-.23 5.635-.689 8.11-.458 2.473-1.147 5.085-2.064 7.834h22.574a45.645 45.645 0 001.514-7.697c.275-2.566.413-5.132.413-7.697 0-8.276-1.371-15.051-4.113-20.325l-21.169 6.4zm9.607-24.224L57.13 52.172c-2.44-3.585-4.679-7.446-6.717-11.584-2.752-5.59-4.129-12.782-4.129-21.579 0-2.749.138-5.681.413-8.796.275-3.116.78-6.506 1.514-10.171H70.51c-.918 4.215-1.56 7.696-1.927 10.445-.367 2.75-.55 5.315-.55 7.697 0 6.781 1.421 12.416 4.266 16.906a201.674 201.674 0 007.037 10.37zm26.653 13.262a295.392 295.392 0 017.191 10.042c2.753 4.032 4.129 8.797 4.129 14.295 0 2.932-.229 5.635-.688 8.11-.459 2.473-1.147 5.085-2.064 7.834h22.573a45.628 45.628 0 001.515-7.697c.275-2.566.413-5.132.413-7.697 0-8.43-1.423-15.303-4.268-20.617a117.107 117.107 0 00-6.639-10.969l-22.162 6.7zm9.936-24.322l-21.336 6.45a90.557 90.557 0 01-.129-.262c-2.753-5.59-4.13-12.782-4.13-21.579 0-2.749.139-5.681.414-8.796.275-3.116.78-6.506 1.514-10.171h22.299c-.918 4.215-1.56 7.696-1.928 10.445-.367 2.75-.55 5.315-.55 7.697 0 6.438 1.282 11.843 3.846 16.216zm26.875 5.587L2.25 82.473 0 75.032l140.55-42.487 2.25 7.442z"/></symbol><symbol viewBox="0 0 136 154" id="icon_5" xmlns="http://www.w3.org/2000/svg"><path d="M23.892 153.992V93.699L0 55.03 34 .052h68l34 54.979-23.892 38.668v60.293L68 139.331l-44.108 14.661zm14.703-20.342L68 123.937l29.405 9.713v-23.641h-58.81v23.641zM42.27 14.713L17.276 55.031 42.27 95.348h51.46l24.994-40.317L93.73 14.713H42.27zm18.011 70.19l-26.097-25.84L44.66 48.615l15.62 15.58L91.34 33.04l10.475 10.263-41.535 41.6z"/></symbol><symbol viewBox="0 0 63 80" id="star_1" xmlns="http://www.w3.org/2000/svg"><path d="M1.453 49.764c-.02-1.641 3.296-3.14 8.553-4.185 3.233-.635 6.207-2.461 8.495-5.218 2.289-2.757 3.774-6.303 4.244-10.13.774-6.222 1.974-10.162 3.366-10.175 1.392-.012 2.684 3.907 3.602 10.114.558 3.818 2.126 7.336 4.477 10.052 2.352 2.716 5.368 4.49 8.615 5.067 5.28.951 8.63 2.392 8.648 4.033.02 1.642-3.296 3.141-8.553 4.186-3.233.635-6.207 2.461-8.495 5.218-2.289 2.757-3.774 6.303-4.244 10.13-.774 6.221-1.975 10.162-3.366 10.175-1.392.012-2.684-3.907-3.602-10.114-.558-3.817-2.125-7.336-4.477-10.052-2.352-2.716-5.367-4.49-8.615-5.067-5.28-.951-8.63-2.392-8.648-4.034zM41 13.475c.005-.723 1.476-1.357 3.797-1.773 1.428-.254 2.751-1.034 3.78-2.23 1.03-1.195 1.712-2.745 1.95-4.428C50.92 2.31 51.48.583 52.093.59c.612.006 1.148 1.743 1.501 4.486.215 1.687.875 3.25 1.887 4.466 1.013 1.216 2.325 2.022 3.749 2.303 2.315.463 3.776 1.126 3.771 1.849-.005.723-1.476 1.357-3.797 1.773-1.428.254-2.751 1.034-3.78 2.23-1.03 1.195-1.712 2.745-1.95 4.427-.392 2.735-.953 4.462-1.565 4.456-.613-.006-1.149-1.744-1.502-4.486-.214-1.687-.874-3.25-1.886-4.466-1.013-1.216-2.325-2.022-3.749-2.304-2.315-.462-3.776-1.125-3.771-1.848z"/></symbol><symbol viewBox="0 0 246 236" id="star_2" xmlns="http://www.w3.org/2000/svg"><path d="M67.04 108.307c-.068-5.87 11.665-11.23 30.274-14.96 11.447-2.268 21.972-8.799 30.071-18.656 8.099-9.858 13.354-22.538 15.014-36.222 2.734-22.251 6.983-36.343 11.909-36.386 4.926-.043 9.503 13.973 12.758 36.172 1.98 13.652 7.531 26.237 15.858 35.952 8.328 9.714 19.004 16.06 30.501 18.128 18.692 3.405 30.549 8.559 30.617 14.429.069 5.87-11.665 11.231-30.276 14.962-11.445 2.269-21.971 8.799-30.069 18.657-8.099 9.857-13.354 22.536-15.015 36.22-2.735 22.251-6.983 36.344-11.909 36.387-4.926.043-9.503-13.973-12.758-36.171-1.978-13.653-7.529-26.238-15.856-35.953-8.328-9.715-19.004-16.06-30.501-18.128-18.692-3.405-30.55-8.561-30.618-14.431zM0 205.072c.012-1.669 3.421-3.131 8.802-4.093 3.31-.583 6.378-2.384 8.764-5.144 2.386-2.759 3.969-6.336 4.52-10.218.908-6.312 2.208-10.296 3.628-10.282 1.419.014 2.662 4.023 3.48 10.352.497 3.892 2.028 7.5 4.374 10.306 2.347 2.806 5.389 4.667 8.69 5.316 5.366 1.068 8.754 2.596 8.742 4.266-.012 1.669-3.421 3.131-8.803 4.092-3.31.585-6.377 2.385-8.763 5.145-2.386 2.759-3.969 6.336-4.52 10.218-.909 6.311-2.209 10.296-3.628 10.282-1.42-.014-2.662-4.024-3.48-10.352-.497-3.892-2.028-7.5-4.374-10.306-2.347-2.807-5.388-4.667-8.69-5.317-5.366-1.067-8.754-2.596-8.742-4.265z"/></symbol><symbol viewBox="0 0 120 146" id="star_3" xmlns="http://www.w3.org/2000/svg"><path d="M120 80.428c-.028 3.666-8.05 6.877-20.711 8.99-7.788 1.282-15.005 5.237-20.62 11.299-5.615 6.062-9.338 13.92-10.637 22.447-2.136 13.864-5.195 22.616-8.534 22.585-3.34-.031-6.264-8.838-8.189-22.74-1.169-8.55-4.772-16.474-10.294-22.638-5.521-6.164-12.677-10.252-20.444-11.678C7.944 86.347-.028 82.99 0 79.323c.027-3.667 8.049-6.878 20.711-8.99 7.788-1.284 15.005-5.24 20.62-11.3 5.614-6.063 9.338-13.92 10.637-22.446C54.106 22.722 57.164 13.97 60.503 14c3.34.03 6.265 8.837 8.189 22.74 1.168 8.55 4.77 16.474 10.292 22.638 5.522 6.165 12.678 10.253 20.445 11.678 12.627 2.346 20.599 5.704 20.571 9.37zM36 23.68c-.008 1.305-2.415 2.448-6.213 3.2-2.337.457-4.502 1.865-6.186 4.024-1.685 2.158-2.802 4.956-3.191 7.992-.641 4.937-1.559 8.053-2.56 8.042-1.003-.011-1.88-3.147-2.457-8.097-.351-3.044-1.432-5.866-3.088-8.06-1.657-2.196-3.804-3.651-6.134-4.159-3.788-.835-6.18-2.03-6.171-3.336.008-1.306 2.415-2.449 6.214-3.201 2.336-.457 4.501-1.865 6.186-4.024 1.684-2.158 2.8-4.956 3.19-7.992.642-4.936 1.56-8.053 2.561-8.042 1.002.011 1.88 3.147 2.457 8.097.35 3.044 1.43 5.866 3.087 8.06 1.657 2.196 3.804 3.651 6.134 4.159 3.788.835 6.18 2.03 6.171 3.336z"/></symbol><symbol viewBox="0 0 120 146" id="star_4" xmlns="http://www.w3.org/2000/svg"><path d="M120 80.428c-.028 3.666-8.05 6.877-20.711 8.99-7.788 1.282-15.005 5.237-20.62 11.299-5.615 6.062-9.338 13.92-10.637 22.447-2.136 13.864-5.195 22.616-8.534 22.585-3.34-.031-6.264-8.838-8.189-22.74-1.169-8.55-4.772-16.474-10.294-22.638-5.521-6.164-12.677-10.252-20.444-11.678C7.944 86.347-.028 82.99 0 79.323c.027-3.667 8.049-6.878 20.711-8.99 7.788-1.284 15.005-5.24 20.62-11.3 5.614-6.063 9.338-13.92 10.637-22.446C54.106 22.722 57.164 13.97 60.503 14c3.34.03 6.265 8.837 8.189 22.74 1.168 8.55 4.77 16.474 10.292 22.638 5.522 6.165 12.678 10.253 20.445 11.678 12.627 2.346 20.599 5.704 20.571 9.37zM36 23.68c-.008 1.305-2.415 2.448-6.213 3.2-2.337.457-4.502 1.865-6.186 4.024-1.685 2.158-2.802 4.956-3.191 7.992-.641 4.937-1.559 8.053-2.56 8.042-1.003-.011-1.88-3.147-2.457-8.097-.351-3.044-1.432-5.866-3.088-8.06-1.657-2.196-3.804-3.651-6.134-4.159-3.788-.835-6.18-2.03-6.171-3.336.008-1.306 2.415-2.449 6.214-3.201 2.336-.457 4.501-1.865 6.186-4.024 1.684-2.158 2.8-4.956 3.19-7.992.642-4.936 1.56-8.053 2.561-8.042 1.002.011 1.88 3.147 2.457 8.097.35 3.044 1.43 5.866 3.087 8.06 1.657 2.196 3.804 3.651 6.134 4.159 3.788.835 6.18 2.03 6.171 3.336z"/></symbol></svg>