<svg width="246" height="236" fill="none" xmlns="http://www.w3.org/2000/svg"><path d="M67.04 108.307c-.068-5.87 11.665-11.23 30.274-14.96 11.447-2.268 21.972-8.799 30.071-18.656 8.099-9.858 13.354-22.538 15.014-36.222 2.734-22.251 6.983-36.343 11.909-36.386 4.926-.043 9.503 13.973 12.758 36.172 1.98 13.652 7.531 26.237 15.858 35.952 8.328 9.714 19.004 16.06 30.501 18.128 18.692 3.405 30.549 8.559 30.617 14.429.069 5.87-11.665 11.231-30.276 14.962-11.445 2.269-21.971 8.799-30.069 18.657-8.099 9.857-13.354 22.536-15.015 36.22-2.735 22.251-6.983 36.344-11.909 36.387-4.926.043-9.503-13.973-12.758-36.171-1.978-13.653-7.529-26.238-15.856-35.953-8.328-9.715-19.004-16.06-30.501-18.128-18.692-3.405-30.55-8.561-30.618-14.431zM0 205.072c.012-1.669 3.421-3.131 8.802-4.093 3.31-.583 6.378-2.384 8.764-5.144 2.386-2.759 3.969-6.336 4.52-10.218.908-6.312 2.208-10.296 3.628-10.282 1.419.014 2.662 4.023 3.48 10.352.497 3.892 2.028 7.5 4.374 10.306 2.347 2.806 5.389 4.667 8.69 5.316 5.366 1.068 8.754 2.596 8.742 4.266-.012 1.669-3.421 3.131-8.803 4.092-3.31.585-6.377 2.385-8.763 5.145-2.386 2.759-3.969 6.336-4.52 10.218-.909 6.311-2.209 10.296-3.628 10.282-1.42-.014-2.662-4.024-3.48-10.352-.497-3.892-2.028-7.5-4.374-10.306-2.347-2.807-5.388-4.667-8.69-5.317-5.366-1.067-8.754-2.596-8.742-4.265z" fill="#fff"/></svg>