<svg width="372" height="408" fill="none" xmlns="http://www.w3.org/2000/svg"><path d="M372 205.889c-.087 11.333-24.954 21.257-64.204 27.786-24.142 3.964-46.517 16.19-63.923 34.927-17.405 18.737-28.948 43.023-32.974 69.38-6.621 42.854-16.103 69.904-26.456 69.809-10.354-.095-19.419-27.317-25.385-70.287-3.624-26.426-14.794-50.92-31.91-69.973-17.117-19.053-39.301-31.688-63.378-36.096C24.625 224.186-.087 213.808 0 202.474c.087-11.333 24.954-21.258 64.209-27.788 24.14-3.966 46.515-16.193 63.92-34.929s28.947-43.02 32.975-69.376C167.727 27.527 177.207.474 187.561.569c10.353.095 19.419 27.316 25.384 70.285 3.622 26.427 14.79 50.922 31.906 69.976 17.116 19.054 39.302 31.689 63.379 36.096 39.145 7.248 63.857 17.628 63.77 28.963z" fill="#fff"/></svg>