<svg width="72" height="95" fill="none" xmlns="http://www.w3.org/2000/svg"><path d="M72 48.092c-.017 2.611-4.83 4.897-12.427 6.401-4.672.914-9.003 3.73-12.372 8.048-3.369 4.316-5.603 9.912-6.382 15.984-1.281 9.873-3.117 16.105-5.12 16.084-2.004-.022-3.759-6.294-4.914-16.194-.701-6.088-2.863-11.732-6.176-16.121-3.313-4.39-7.606-7.301-12.266-8.316C4.766 52.307-.017 49.916 0 47.304c.017-2.611 4.83-4.898 12.428-6.402 4.672-.914 9.002-3.73 12.371-8.047 3.369-4.317 5.603-9.912 6.382-15.984C32.463 6.999 34.298.766 36.302.788c2.004.022 3.759 6.293 4.913 16.193.701 6.089 2.863 11.732 6.175 16.122 3.313 4.39 7.607 7.3 12.267 8.316 7.577 1.67 12.36 4.062 12.343 6.673z" fill="#fff"/></svg>