<svg width="40" height="42" fill="none" xmlns="http://www.w3.org/2000/svg"><path d="M20 0c11.046 0 20 8.783 20 19.618 0 10.834-8.954 19.618-20 19.618a20.28 20.28 0 01-7.636-1.484L1.274 42l2.71-10.634A19.283 19.283 0 010 19.618C0 8.783 8.954 0 20 0zm0 .858c-2.582 0-5.087.496-7.444 1.474a19.087 19.087 0 00-6.08 4.02 18.682 18.682 0 00-4.099 5.964 18.335 18.335 0 00-1.502 7.302c0 4.086 1.317 7.97 3.81 11.234l.249.326-.101.396-2.3 9.022 9.513-3.643.327-.126.325.132A19.324 19.324 0 0020 38.378c2.582 0 5.087-.496 7.444-1.474a19.09 19.09 0 006.08-4.021 18.682 18.682 0 004.099-5.963 18.334 18.334 0 001.502-7.302c0-2.533-.505-4.99-1.502-7.302a18.683 18.683 0 00-4.1-5.963 19.087 19.087 0 00-6.079-4.021A19.325 19.325 0 0020 .858z" fill="#01F061"/><path d="M20.5 4C11.387 4 4 11.263 4 20.222c0 4.133 1.573 7.905 4.162 10.77L6.428 37l6.343-2.444a16.65 16.65 0 007.729 1.888c9.113 0 16.5-7.263 16.5-16.222C37 11.262 29.613 4 20.5 4zm6.747 25.78c-1.906.07-5.654-.376-10.437-4.786-4.543-4.37-4.939-8.387-4.868-10.261.07-1.878 2.545-3.338 2.545-3.338l2.193.14s1.202 3.337 1.626 4.17c.424.835.141 1.183.141 1.183s-1.272 1.46-1.555 1.668c-.283.209-.213.432-.142.557.704 1.224 2.07 2.692 2.672 3.313.632.592 2.125 1.935 3.37 2.627.127.07.354.139.566-.14.212-.277 1.697-1.529 1.697-1.529s.354-.278 1.202.14c.849.416 4.243 1.598 4.243 1.598l.142 2.155s-1.485 2.434-3.395 2.503z" fill="#01F061"/></svg>