<svg width="143" height="99" viewBox="0 0 143 99" fill="none" xmlns="http://www.w3.org/2000/svg">
<path fill-rule="evenodd" clip-rule="evenodd" d="M28.5277 91.1681C28.0689 93.6422 27.3807 96.2536 26.463 99.0025H49.037C49.7711 96.4369 50.3217 93.8712 50.6887 91.3056C51.0558 88.7399 51.2393 86.1743 51.2393 83.6086C51.2393 80.6953 51.0695 77.9681 50.7297 75.4269L29.1965 81.9362C29.2094 82.3069 29.2159 82.6812 29.2159 83.0588C29.2159 85.991 28.9865 88.6941 28.5277 91.1681ZM21.0851 63.0686L43.1758 56.3908C41.4418 53.5858 39.6332 50.9297 37.75 48.4225C34.4465 44.0242 31.3724 39.5801 28.5277 35.0902C25.683 30.6003 24.2607 24.965 24.2607 18.1844C24.2607 15.802 24.3983 13.2363 24.6736 10.4874C24.9489 7.73847 25.5454 4.25651 26.463 0.0415039H4.16435C3.43024 3.70673 2.92554 7.09706 2.65024 10.2125C2.37495 13.3279 2.2373 16.2601 2.2373 19.009C2.2373 27.8056 3.61377 34.9986 6.36669 40.588C9.11961 46.1775 12.2396 51.263 15.7266 55.8445C17.6211 58.3337 19.4073 60.7417 21.0851 63.0686ZM69.7292 69.6836C72.0849 73.5147 73.2627 77.9731 73.2627 83.0588C73.2627 85.991 73.0333 88.6941 72.5745 91.1681C72.1156 93.6422 71.4274 96.2536 70.5098 99.0025H93.0837C93.8178 96.4369 94.3225 93.8712 94.5978 91.3056C94.8731 88.7399 95.0108 86.1743 95.0108 83.6086C95.0108 75.3325 93.6399 68.5578 90.8982 63.2844L69.7292 69.6836ZM79.336 45.4599L57.1305 52.1724C54.6903 48.5871 52.4513 44.7257 50.4134 40.588C47.6605 34.9986 46.2841 27.8056 46.2841 19.009C46.2841 16.2601 46.4217 13.3279 46.697 10.2125C46.9723 7.09706 47.477 3.70673 48.2111 0.0415039H70.5098C69.5921 4.25651 68.9498 7.73847 68.5827 10.4874C68.2157 13.2363 68.0321 15.802 68.0321 18.1844C68.0321 24.965 69.4545 30.6003 72.2992 35.0902C74.5066 38.5744 76.8523 42.0309 79.336 45.4599ZM105.989 58.7225C108.614 62.2405 111.011 65.5878 113.18 68.7644C115.933 72.7962 117.309 77.561 117.309 83.0588C117.309 85.991 117.08 88.6941 116.621 91.1681C116.162 93.6422 115.474 96.2536 114.557 99.0025H137.13C137.865 96.4369 138.369 93.8712 138.645 91.3056C138.92 88.7399 139.058 86.1743 139.058 83.6086C139.058 75.1786 137.635 68.3063 134.79 62.9917C132.701 59.0884 130.488 55.4322 128.151 52.0232L105.989 58.7225ZM115.925 34.3995L94.5892 40.8491C94.5461 40.7622 94.5031 40.6752 94.4602 40.588C91.7073 34.9986 90.3308 27.8056 90.3308 19.009C90.3308 16.2601 90.4685 13.3279 90.7437 10.2125C91.019 7.09706 91.5237 3.70673 92.2579 0.0415039H114.557C113.639 4.25651 112.997 7.73847 112.629 10.4874C112.262 13.2363 112.079 15.802 112.079 18.1844C112.079 24.6218 113.361 30.0268 115.925 34.3995Z" fill="white"/>
<path fill-rule="evenodd" clip-rule="evenodd" d="M142.8 39.9866L2.24956 82.4735L0 75.0317L140.55 32.5449L142.8 39.9866Z" fill="white"/>
</svg>
