<svg width="125" height="125" viewBox="0 0 125 125" fill="none" xmlns="http://www.w3.org/2000/svg">
<path d="M17.6518 107.349C12.1356 101.834 7.81459 95.4611 4.68875 88.2303C1.56292 80.9995 0 73.5236 0 65.8025C0 58.0815 1.47098 50.4524 4.41294 42.9151C7.35491 35.3779 12.1356 28.3003 18.755 21.6823C23.0454 17.3928 28.347 13.7161 34.66 10.6522C40.973 7.58831 48.4505 5.16782 57.0925 3.39076C65.7345 1.61369 75.6023 0.541325 86.696 0.173657C97.7896 -0.194012 110.201 0.234935 123.93 1.4605C124.911 14.4515 125.217 26.4007 124.85 37.3082C124.482 48.2157 123.471 58.0508 121.816 66.8136C120.161 75.5764 117.832 83.2362 114.828 89.7929C111.825 96.3497 108.117 101.834 103.704 106.246C97.2074 112.742 90.3121 117.491 83.0185 120.493C75.7249 123.496 68.2781 124.997 60.678 124.997C52.7102 124.997 44.9262 123.435 37.3262 120.309C29.7261 117.184 23.168 112.864 17.6518 107.349ZM38.2455 104.408C41.8004 106.491 45.4472 107.993 49.1859 108.912C52.9247 109.831 56.7554 110.29 60.678 110.29C66.3168 110.29 71.8942 109.157 77.4104 106.89C82.9266 104.622 88.1976 100.976 93.2235 95.9514C95.4299 93.7453 97.667 90.6508 99.9348 86.6677C102.203 82.6846 104.164 77.476 105.819 71.0418C107.474 64.6076 108.73 56.8253 109.588 47.6948C110.446 38.5644 110.569 27.6875 109.956 15.0642C103.949 14.8191 97.1767 14.7272 89.6379 14.7885C82.0992 14.8498 74.591 15.4319 67.1135 16.5349C59.636 17.6379 52.5263 19.415 45.7843 21.8661C39.0423 24.3172 33.5261 27.6875 29.2358 31.977C23.7196 37.492 19.9195 42.9458 17.8357 48.3383C15.7518 53.7307 14.7098 58.9394 14.7098 63.9642C14.7098 71.195 16.0889 77.5373 18.847 82.991C21.605 88.4448 24.026 92.2747 26.1099 94.4807C31.2584 84.6762 38.0616 75.27 46.5198 66.2621C54.9779 57.2542 64.8458 49.8702 76.1233 44.1101C67.2974 51.8311 59.6054 60.5632 53.0473 70.3065C46.4891 80.0497 41.5552 91.4168 38.2455 104.408Z" fill="white"/>
</svg>
