<svg width="142" height="142" viewBox="0 0 142 142" fill="none" xmlns="http://www.w3.org/2000/svg">
<path d="M66.74 120.702L97.625 60.3761H76.325V21.3414L44.375 81.6677H66.74V120.702ZM71 141.994C61.1783 141.994 51.9483 140.131 43.31 136.405C34.6717 132.679 27.1575 127.622 20.7675 121.235C14.3775 114.847 9.31875 107.336 5.59125 98.701C1.86375 90.066 0 80.8397 0 71.0219C0 61.2041 1.86375 51.9777 5.59125 43.3428C9.31875 34.7078 14.3775 27.1966 20.7675 20.8091C27.1575 14.4216 34.6717 9.36489 43.31 5.63885C51.9483 1.91282 61.1783 0.0498047 71 0.0498047C80.8217 0.0498047 90.0517 1.91282 98.69 5.63885C107.328 9.36489 114.843 14.4216 121.233 20.8091C127.623 27.1966 132.681 34.7078 136.409 43.3428C140.136 51.9777 142 61.2041 142 71.0219C142 80.8397 140.136 90.066 136.409 98.701C132.681 107.336 127.623 114.847 121.233 121.235C114.843 127.622 107.328 132.679 98.69 136.405C90.0517 140.131 80.8217 141.994 71 141.994ZM71 127.8C86.8567 127.8 100.287 122.299 111.293 111.299C122.298 100.298 127.8 86.8723 127.8 71.0219C127.8 55.1714 122.298 41.7459 111.293 30.7452C100.287 19.7446 86.8567 14.2442 71 14.2442C55.1433 14.2442 41.7125 19.7446 30.7075 30.7452C19.7025 41.7459 14.2 55.1714 14.2 71.0219C14.2 86.8723 19.7025 100.298 30.7075 111.299C41.7125 122.299 55.1433 127.8 71 127.8Z" fill="white"/>
</svg>
