<svg width="63" height="80" viewBox="0 0 63 80" fill="none" xmlns="http://www.w3.org/2000/svg">
<path d="M1.45289 49.7643C1.43387 48.123 4.74877 46.6234 10.0057 45.5792C13.2392 44.9444 16.2131 43.1177 18.5014 40.3607C20.7897 37.6037 22.2751 34.0581 22.7447 30.2314C23.5186 24.0094 24.7195 20.0687 26.1111 20.0564C27.5027 20.0441 28.7946 23.9629 29.7127 30.1701C30.2712 33.9876 31.8386 37.5062 34.1904 40.222C36.5422 42.9378 39.5577 44.7115 42.8052 45.2892C48.0853 46.2403 51.4343 47.6809 51.4533 49.3222C51.4723 50.9635 48.1575 52.4633 42.8999 53.5076C39.6666 54.1427 36.6928 55.9695 34.4045 58.7263C32.1163 61.4831 30.6309 65.0287 30.1611 68.8551C29.387 75.0771 28.1863 79.0183 26.7947 79.0306C25.4031 79.0429 24.111 75.1241 23.193 68.9171C22.6348 65.0995 21.0677 61.5808 18.7159 58.8648C16.3642 56.1489 13.3486 54.3752 10.101 53.7977C4.82092 52.8466 1.47192 51.4058 1.45289 49.7643Z" fill="white"/>
<path d="M41 13.4749C41.0051 12.7516 42.4758 12.1182 44.797 11.7016C46.2248 11.4485 47.548 10.6682 48.5774 9.47239C49.6068 8.27656 50.2894 6.72659 50.5275 5.04443C50.9191 2.3094 51.4798 0.583041 52.0921 0.589107C52.7044 0.59517 53.2405 2.33249 53.5934 5.07493C53.8077 6.76153 54.4682 8.32479 55.4805 9.54079C56.4928 10.7568 57.8048 11.5632 59.2287 11.8445C61.5437 12.3071 63.0051 12.9695 63 13.6928C62.9949 14.4162 61.5242 15.0496 59.2027 15.4663C57.7751 15.7195 56.4518 16.4998 55.4225 17.6956C54.3932 18.8913 53.7106 20.4412 53.4724 22.1233C53.0806 24.8583 52.52 26.5849 51.9077 26.5788C51.2954 26.5728 50.7592 24.8354 50.4065 22.0931C50.1923 20.4064 49.5318 18.8431 48.5196 17.6271C47.5073 16.411 46.1953 15.6046 44.7713 15.3234C42.4563 14.8608 40.9949 14.1983 41 13.4749Z" fill="white"/>
</svg>
