<svg width="120" height="146" viewBox="0 0 120 146" fill="none" xmlns="http://www.w3.org/2000/svg">
<path d="M120 80.4277C119.972 84.0945 111.95 87.3052 99.2889 89.4173C91.5014 90.6999 84.2835 94.6555 78.6688 100.717C73.0541 106.779 69.3306 114.637 68.0321 123.164C65.896 137.028 62.8374 145.78 59.4976 145.749C56.1577 145.718 53.2336 136.911 51.309 123.009C50.1401 114.459 46.5369 106.535 41.0154 100.371C35.494 94.2065 28.3377 90.1188 20.5709 88.6927C7.94365 86.3475 -0.0279277 82.9898 7.35282e-05 79.323C0.0280747 75.6563 8.04958 72.4453 20.7124 70.3328C28.4996 69.0495 35.7174 65.0939 41.3319 59.0322C46.9464 52.9705 50.6697 45.1137 51.9689 36.5869C54.1056 22.7224 57.1637 13.9699 60.5034 14.0007C63.8432 14.0314 66.7679 22.8384 68.692 36.7401C69.8602 45.2901 73.4629 53.2149 78.9842 59.3793C84.5056 65.5438 91.6622 69.6316 99.4291 71.0574C112.056 73.4025 120.028 76.7607 120 80.4277Z" fill="white"/>
<path d="M36 23.6794C35.9916 24.9849 33.5851 26.1281 29.7867 26.8802C27.4504 27.3369 25.285 28.7453 23.6006 30.9037C21.9162 33.0621 20.7992 35.8598 20.4096 38.896C19.7688 43.8326 18.8512 46.9486 17.8493 46.9377C16.8473 46.9267 15.9701 43.791 15.3927 38.841C15.042 35.7967 13.9611 32.9751 12.3046 30.7803C10.6482 28.5854 8.5013 27.13 6.17128 26.6222C2.38309 25.7872 -0.0083783 24.5916 2.20585e-05 23.286C0.00842242 21.9804 2.41488 20.8371 6.21373 20.0849C8.54988 19.628 10.7152 18.2196 12.3996 16.0613C14.0839 13.9029 15.2009 11.1054 15.5907 8.06938C16.2317 3.13277 17.1491 0.0163653 18.151 0.0273115C19.153 0.0382577 20.0304 3.17406 20.6076 8.12391C20.9581 11.1682 22.0389 13.9899 23.6953 16.1849C25.3517 18.3798 27.4987 19.8353 29.8287 20.3429C33.6169 21.1779 36.0084 22.3737 36 23.6794Z" fill="white"/>
</svg>
