<svg width="60" height="114" viewBox="0 0 60 114" fill="none" xmlns="http://www.w3.org/2000/svg">
<path d="M17.2399 101.606C17.2399 101.606 30.0106 100.687 40.2483 107.02C48.1003 111.877 55.4829 113.534 58.6186 113.966C58.8652 114.02 59.1215 114.01 59.3632 113.938C59.6049 113.865 59.8241 113.733 60 113.554C60 113.554 47.1916 100.074 50.8977 81.0739C54.6037 62.0742 54.6037 50.4291 49.6623 35.7196C44.7209 21.0101 47.6034 21.0101 52.5448 18.3543C57.4862 15.6984 61.1922 11.8167 54.1919 5.48344C47.1916 -0.84981 39.0062 -0.441179 32.4954 6.50493C25.9847 13.4511 27.2566 19.5801 14.9053 28.3649C3.1493 36.7264 3.78205 34.2896 2.24947 41.6443C0.716934 48.9991 7.76105 49.7907 10.62 48.3606C10.62 48.3606 2.92318 55.5366 5.62905 58.1925C8.33493 60.8484 14.2855 61.6656 13.4721 69.8375C12.6587 78.0095 6.08526 94.6598 17.2399 101.606Z" fill="#048738"/>
<path d="M15.0734 102.76C15.0734 102.76 28.3247 100.717 38.6636 107.052C44.8179 110.842 51.7639 113.218 58.983 114C58.983 114 45.6757 100.104 49.4183 81.098C53.161 62.0925 53.161 50.444 48.1708 35.7301C43.1805 21.0162 46.0914 21.0162 51.0817 18.3595C56.072 15.7028 59.8147 11.82 52.7451 5.4848C45.6756 -0.850351 37.4093 -0.441599 30.8341 6.50661C24.2589 13.4549 25.5435 19.5857 13.07 28.3732C1.19768 36.7371 1.83669 34.2996 0.288946 41.6566C-1.25874 49.0135 3.77901 52.2833 6.66628 50.8527C6.66628 50.8527 0.969369 55.553 3.70196 58.2097C6.4346 60.8664 12.444 61.6838 11.6226 69.8582C10.8011 78.0327 3.80844 95.812 15.0734 102.76Z" fill="url(#paint0_linear_54_81)"/>
<path d="M53.609 4.77545C51.4871 2.85482 48.9523 1.41075 46.1857 0.546428C44.4257 -0.00818877 42.5528 -0.143128 40.7271 0.153135C38.9013 0.449398 37.1769 1.16807 35.7009 2.2478C33.6294 3.8265 31.871 6.30713 32.7949 10.003C34.7063 17.6483 53.3189 21.4444 57.4686 13.9043C58.6258 11.5121 57.931 8.54469 53.609 4.77545Z" fill="#048738"/>
<path style="mix-blend-mode:multiply" opacity="0.36" d="M52.0978 4.57095C48.3345 1.06559 44.2275 -0.403525 40.2247 0.0943868C38.628 0.628618 32.3031 3.16852 33.7815 9.48406C35.4635 16.6695 51.8426 20.2372 55.4943 13.1507C56.5127 10.9024 55.9012 8.11345 52.0978 4.57095Z" fill="url(#paint1_linear_54_81)"/>
<path style="mix-blend-mode:multiply" opacity="0.36" d="M38.9308 24.1591C42.696 19.9978 30.9767 27.858 24.8955 34.7932C18.8143 41.7285 9.8128 48.5611 6.69342 50.1537C5.70621 50.9969 4.82483 51.9524 4.06787 53C7.50891 50.3542 15.2779 44.8096 22.1509 41.5744C29.0269 38.3379 35.1656 28.3203 38.9308 24.1591Z" fill="url(#paint2_linear_54_81)"/>
<path d="M46.6551 16.8139C52.6953 17.2057 56.1001 11.4854 51.5727 7.59585C47.0453 3.70632 37.3879 3.32498 38.0404 7.90092C38.6931 12.4769 43.9535 14.4005 48.5285 14.0785C53.1034 13.7565 49.6005 9.19744 45.4738 7.74842C41.3471 6.29934 39.3175 9.04493 43.923 11.5617C48.5285 14.0785 47.8979 11.3329 45.8324 9.96011C45.8324 9.96011 46.8502 12.4381 43.962 10.7034C41.0739 8.96867 42.6741 7.10011 46.2257 9.12118C49.7774 11.1422 50.8885 13.8878 45.4738 13.087C40.0591 12.2862 36.6638 6.16479 41.6983 5.65108C46.7329 5.13737 52.1192 7.97719 52.3143 11.5617C52.5095 15.1462 48.2553 17.0147 41.4251 14.536C34.595 12.0574 34.6709 5.19351 38.009 3.70633C41.3471 2.21911 49.6503 2.90551 53.6558 7.4052C57.6613 11.9049 54.9063 15.1341 53.6558 15.6545C52.4053 16.1748 54.0316 16.4046 54.0316 16.4046L56.8518 13.2014C56.8518 13.2014 58.0126 7.93904 52.3143 4.88843C46.616 1.83777 40.5274 1.34207 37.6783 2.75299C34.8291 4.16391 32.5301 9.07819 37.4459 13.6184C42.3618 18.1587 46.6551 16.8139 46.6551 16.8139Z" fill="#048738"/>
<path style="mix-blend-mode:multiply" opacity="0.36" d="M35.9332 16C35.9332 16 41.4996 19.1005 37.3208 20.3406C33.142 21.5808 19.9279 36.773 11.5562 44.059C3.50827 51.0633 1.18502 47.7314 1.01685 47.4624C2.13247 50.1749 4.49762 51.3687 6.33866 50.9008C6.54205 50.8288 6.74554 50.7566 6.96248 50.6733C16.185 47.1337 29.9434 31.7089 35.0281 27.0066C40.1129 22.3043 50.8473 17.8086 50.8473 17.8086C44.119 20.599 35.9332 16 35.9332 16Z" fill="url(#paint3_linear_54_81)"/>
<path d="M25.5403 21.8731C30.6623 14.4412 34.5763 14.6476 34.5763 14.6476C28.0956 10.4841 32.3047 4.47117 32.6492 4C32.0731 4.49314 31.5231 5.01523 31.0014 5.56418C24.3905 12.5833 25.6819 18.7764 13.1407 27.6534C1.20387 36.1027 1.8463 33.6403 0.290192 41.0721C-0.480873 44.7549 0.375739 47.4203 1.78755 49C-4.59496 39.3884 20.4195 29.3034 25.5403 21.8731Z" fill="#18D665" style="mix-blend-mode:screen"/>
<path d="M15.0578 86.6687C14.4632 73.8065 22.3905 70.4176 20.7864 67.3368C19.1825 64.256 22.2011 63.8611 21.1134 61.6374C20.0257 59.4136 18.8005 58.9416 19.2588 56.9391C19.7171 54.9367 13.9997 51.3091 14.9489 45.883C14.9489 45.883 10.2456 48.0819 6.96126 42.3054C6.14043 40.9138 5.65076 39.3493 5.53072 37.7347C5.41068 36.1201 5.66353 34.4994 6.26943 33C5.02318 33.8318 4.11085 34.4474 3.42 35.0031C2.62427 38.3951 3.12503 41.9648 4.82252 45.0011C8.04251 50.8713 11.315 48.7751 11.315 48.7751C11.315 48.7751 10.8567 51.7018 14.0648 54.5516C17.2729 57.4012 14.4468 58.829 15.7835 60.5028C17.1201 62.1765 17.0437 65.3343 16.509 68.261C15.9743 71.1878 14.2939 71.8039 14.5995 74.4226C14.905 77.0413 11.2387 79.66 11.7733 87.67C12.039 93.0306 13.4772 98.2656 15.9848 103C16.7885 102.919 18.0175 102.827 19.5485 102.812C18.0482 100.652 15.4751 95.6956 15.0578 86.6687Z" fill="#1F9EF3" fill-opacity="0.79" style="mix-blend-mode:screen"/>
<path d="M19.9868 30.1592C23.0584 35.3329 26.7443 33.6341 26.7443 33.6341C26.7443 33.6341 24.7477 40.0433 28.4336 44.8309C32.1194 49.6185 29.6783 53.8655 31.7435 54.5605C33.8087 55.2555 30.1997 57.4176 31.4284 59.657C32.6569 61.8964 26.5036 70.6994 25.2034 79.6568C24.0002 88.0534 26.0527 96.5939 30.9361 103.511C32.2847 103.914 33.6034 104.412 34.8828 105C32.6706 101.835 26.9966 92.4762 28.7746 81.8962C30.9676 68.8461 36.6499 61.8509 35.4214 56.6614C34.1927 51.4718 36.8803 53.0933 34.6534 51.2401C32.4266 49.3869 36.1891 50.159 32.273 44.5993C28.3568 39.0394 29.3822 32.2057 30.3668 30.2172C30.3668 30.2172 26.3603 32.4758 22.7513 27.3793C19.4347 22.6959 22.2072 17.7698 22.6795 17C21.4945 18.8858 20.1139 20.6398 18.5608 22.2325C18.1771 23.8106 17.9484 26.7256 19.9868 30.1592Z" fill="#1F9EF3" fill-opacity="0.79" style="mix-blend-mode:screen"/>
<path d="M40.0243 86.1662C41.5001 71.0532 47.6343 55.7361 43.3478 47.9753C39.0614 40.2147 36.2727 30.2446 40.9162 22.3719C40.9162 22.3719 34.7443 26.0463 30.3107 20.9917C25.8826 15.9433 28.4475 8.01947 28.4539 8C27.0238 9.97263 25.7609 12.0624 24.6786 14.2473C24.1983 16.8807 24.1526 20.506 26.2582 23.8253C30.1449 29.9522 35.4102 25.9982 35.4102 25.9982C35.4102 25.9982 30.9208 32.4029 35.4102 40.4445C39.8997 48.4859 42.3384 51.4536 37.8421 65.6698C33.3461 79.8848 29.5299 90.8479 41.2652 108.607C44.0088 110.004 46.8764 111.14 49.8305 112C49.7892 111.961 38.5512 101.251 40.0243 86.1662Z" fill="#1F9EF3" fill-opacity="0.93" style="mix-blend-mode:screen"/>
<path d="M11.9714 38.829C14.9916 42.3854 19.6382 41.8442 19.6382 41.8442C19.6382 41.8442 19.7157 48.9363 23.278 52.4258C26.8404 55.9154 23.1232 57.539 24.9818 59.1625C26.8404 60.7861 24.3622 64.7939 25.0593 66.2692C25.7563 67.7444 19.3284 73.9295 18.7089 85.5266C18.2614 93.9055 20.7589 99.9253 22.1828 102.631C23.4039 102.689 24.7283 102.804 26.1156 103C24.7015 100.275 20.1777 90.5586 22.3487 81.4289C24.9043 70.6824 29.4734 65.6569 28.5442 63.8787C27.6149 62.1005 30.2387 59.9356 29.2753 58.4667C28.3119 56.9977 27.6149 56.2246 28.2344 53.8279C28.8539 51.4312 20.8347 45.5462 23.4413 38.0646C23.4413 38.0646 18.6314 41.0711 15.3788 37.2054C14.2148 35.8016 13.4792 34.0934 13.2595 32.2842C13.0399 30.475 13.3454 28.6409 14.1398 27C13.7682 27.2671 13.3753 27.5571 12.9654 27.8504C12.1272 28.4502 11.3583 28.9896 10.6405 29.4867C10.6405 29.4867 8.9511 35.2726 11.9714 38.829Z" fill="#1F9EF3" fill-opacity="0.79" style="mix-blend-mode:screen"/>
<path d="M32.5739 97.4115C22.4252 89.3273 9.08062 108.117 9.47372 84C8.60669 91.2214 9.15425 98.6614 15.4457 102.623C15.4457 102.623 28.5846 100.554 38.8359 106.967C44.9379 110.804 51.8251 113.208 58.9831 114C58.9831 114 47.5609 101.813 48.9688 84.6145C48.9653 84.6122 42.7228 105.496 32.5739 97.4115Z" fill="#18D665" style="mix-blend-mode:screen"/>
<defs>
<linearGradient id="paint0_linear_54_81" x1="8.12635" y1="96.3934" x2="85.827" y2="17.336" gradientUnits="userSpaceOnUse">
<stop stop-color="#7BFFB0"/>
<stop offset="0.348" stop-color="#01F061"/>
</linearGradient>
<linearGradient id="paint1_linear_54_81" x1="37.6578" y1="16.2523" x2="60.9748" y2="-6.57236" gradientUnits="userSpaceOnUse">
<stop stop-color="#7BFFB0"/>
<stop offset="1" stop-color="white"/>
</linearGradient>
<linearGradient id="paint2_linear_54_81" x1="-13.8846" y1="74.3181" x2="53.8741" y2="5.24124" gradientUnits="userSpaceOnUse">
<stop stop-color="white"/>
<stop offset="1" stop-color="#3B952A"/>
</linearGradient>
<linearGradient id="paint3_linear_54_81" x1="28.1842" y1="35.1308" x2="22.3755" y2="29.8649" gradientUnits="userSpaceOnUse">
<stop stop-color="#7BFFB0"/>
<stop offset="1" stop-color="white"/>
</linearGradient>
</defs>
</svg>
