<svg width="30" height="31" viewBox="0 0 30 31" fill="none" xmlns="http://www.w3.org/2000/svg">
<path d="M12.315 19.3943C12.4544 19.5349 12.6203 19.6464 12.8031 19.7225C12.9859 19.7987 13.182 19.8379 13.38 19.8379C13.578 19.8379 13.7741 19.7987 13.9569 19.7225C14.1397 19.6464 14.3056 19.5349 14.445 19.3943L20.565 13.2767C20.8475 12.9944 21.0061 12.6115 21.0061 12.2122C21.0061 11.8129 20.8475 11.4299 20.565 11.1476C20.2825 10.8652 19.8995 10.7066 19.5 10.7066C19.1005 10.7066 18.7175 10.8652 18.435 11.1476L13.38 16.2156L11.565 14.3863C11.2825 14.104 10.8995 13.9453 10.5 13.9453C10.1005 13.9453 9.71746 14.104 9.435 14.3863C9.15254 14.6686 8.99386 15.0516 8.99386 15.4509C8.99386 15.8502 9.15254 16.2331 9.435 16.5155L12.315 19.3943ZM28.5 0.276855H1.5C1.10218 0.276855 0.720644 0.434828 0.43934 0.716022C0.158035 0.997216 0 1.3786 0 1.77627V28.7656C0 29.1633 0.158035 29.5447 0.43934 29.8259C0.720644 30.1071 1.10218 30.265 1.5 30.265H28.5C28.8978 30.265 29.2794 30.1071 29.5607 29.8259C29.842 29.5447 30 29.1633 30 28.7656V1.77627C30 1.3786 29.842 0.997216 29.5607 0.716022C29.2794 0.434828 28.8978 0.276855 28.5 0.276855ZM27 27.2662H3V3.27567H27V27.2662Z" fill="white"/>
</svg>
