<svg width="64" height="77" viewBox="0 0 64 77" fill="none" xmlns="http://www.w3.org/2000/svg">
<path d="M6.42857 75.7117H5.14286C3.85714 75.7117 2.7 74.6753 2.57143 73.3798L0.385715 45.0091C0.128572 42.1591 0 39.3091 0 36.5886V29.9818C0 27.3908 1.92857 25.1885 4.5 24.7999L6.94286 24.4112C10.9286 23.8931 15.0429 23.3749 18.3857 23.1158C22.6286 22.8567 24.9429 23.2453 26.1 24.4112C26.6143 24.9294 27 25.5772 27 26.3544H24.4286C24.0429 25.9658 23.0143 25.4476 18.6429 25.7067C15.4286 25.8363 11.3143 26.3544 7.32857 27.0022L4.88571 27.3908C3.6 27.5204 2.7 28.6863 2.7 29.9818V36.5886C2.7 39.3091 2.82857 42.0296 3.08571 44.8796L5.14286 73.1207H6.42857V75.7117Z" fill="#0D7CC6"/>
<path d="M58.9617 75.7117H57.6699V73.1162H58.9617L61.2871 44.6954C61.5455 41.9702 61.6746 39.1151 61.6746 36.3899V29.7713C61.6746 28.4736 60.7703 27.3056 59.4785 27.1758C58.445 27.0461 57.4115 26.9163 56.5072 26.7865C49.9187 26.0079 41.2632 24.8399 39.5837 26.2674V26.3972H37C37 25.6185 37.3876 24.8399 37.9043 24.3208C40.2297 22.2444 46.4306 23.023 56.5072 24.3208C57.5407 24.4506 58.5742 24.5803 59.4785 24.7101C62.0622 25.0994 64 27.3056 64 29.9011V36.5196C64 39.2449 63.8708 42.1 63.6124 44.955L61.5455 73.3757C61.4163 74.6735 60.2536 75.7117 58.9617 75.7117Z" fill="#0D7CC6"/>
<path d="M57.4545 75.7117H38.2364V39.2461H60V73.107C60 74.5396 58.8545 75.7117 57.4545 75.7117ZM25.5091 39.2461H4V73.107C4 74.5396 5.14545 75.7117 6.54545 75.7117H25.5091V39.2461Z" fill="#01F061"/>
<path d="M62 41.2714H38.913V26.0774H58.1522C60.3326 26.0774 62 27.7234 62 29.8759V41.2714ZM26.087 26.0774H6.84783C4.66739 26.0774 3 27.7234 3 29.8759V41.2714H26.087V26.0774Z" fill="#7BFFB0"/>
<path d="M29.3417 2.42819C29.0863 2.42819 28.8309 2.42819 28.5755 2.56031C28.1924 2.29607 27.8093 2.03182 27.2985 1.76758L25.5108 3.48516C27.4262 4.27789 29.4694 6.39184 29.3417 9.03428C29.3417 10.7519 26.66 19.0755 25 23.8319L26.1493 24.2283C27.0431 25.1532 28.3201 25.8138 29.5971 26.078C29.8524 24.6247 30.3632 23.1713 31.0017 21.9822C31.6402 17.4901 32.9171 13.1301 34.9603 9.1664C35.3434 5.46699 32.9171 2.42819 29.3417 2.42819Z" fill="#0D7CC6"/>
<path d="M35.131 4.1202C33.8359 2.55179 32.0228 1.76758 29.9507 1.76758H24.7704C20.4967 1.76758 17 5.29651 17 9.60965C17 12.093 17.518 13.9228 17.518 13.9228L18.8131 13.5307C20.3672 13.6614 21.6623 14.3149 22.6983 15.2298C22.9573 16.6675 23.0868 17.8438 23.0868 17.9745L24.3819 17.7131L25.677 17.4517C25.677 17.4517 24.7704 11.8316 24.7704 9.34825C24.7704 7.25703 25.936 5.42721 27.8786 4.5123C29.6917 3.7281 31.8933 4.1202 33.1884 5.55791C34.095 6.60352 34.4835 7.91054 34.354 9.47895L36.9441 9.74035C37.2031 7.77984 36.5556 5.55791 35.131 4.1202Z" fill="#1F9EF3"/>
<path d="M49.3148 3.86732C46.463 2.57027 43.4815 1.53262 40.3704 0.884099L39.5926 0.754395L39.0741 1.40292C37.1296 3.73761 35.4444 6.20201 34.1481 8.79611C32.0741 12.817 30.6481 17.2269 30 21.7666V22.026H31.4259H33.3704C33.5 20.8587 33.6296 19.6913 33.8889 18.524C35.963 16.4487 38.6852 15.0219 41.7963 14.6328L42.963 15.2814C44.6481 12.0387 46.8519 8.92581 49.7037 6.20201L51 4.90496L49.3148 3.86732Z" fill="#0E80CC"/>
<path d="M30.1048 24.5308C29.0816 24.4019 28.0585 23.8862 27.2911 23.1127C26.268 22.2102 25.7564 20.9211 25.7564 19.5029C25.7564 18.6005 25.6285 17.6981 25.3728 16.9246C24.3496 14.0884 21.7918 12.0256 18.8503 11.8967C18.5945 11.8967 18.3387 11.8967 18.2108 11.8967C14.1183 11.8967 10.5373 14.8619 11.0489 19.2451C11.1768 20.0186 12.4557 20.2765 12.5836 19.374C12.7115 18.7294 13.7346 18.3427 14.3741 18.3427C15.1414 18.3427 15.653 18.8584 15.653 19.6319C15.653 21.5656 16.4203 23.4994 17.8271 25.0465L18.7224 24.144C22.9428 23.8862 25.8843 24.2729 25.8843 26.0778C25.8843 26.0778 30.4884 26.0778 31 26.0778V24.7886C30.6163 24.6597 30.3605 24.6597 30.1048 24.5308Z" fill="#0D7CC6"/>
<path d="M48.494 16.8604L43.4337 12.9099H42.9277C42.1687 12.9099 41.4096 12.9099 40.7771 13.0416C36.0964 13.7 31.7952 16.8604 29.5181 21.2058C28.759 22.6543 28.253 24.1028 28 25.683V26.0781H30.2771H30.5301H34.1988H35.5904H36.7289C38.8795 21.7326 42.9277 19.6257 47.6084 19.494C48.241 19.494 48.747 19.0989 48.8735 18.5722C49.1265 17.9138 49 17.2554 48.494 16.8604Z" fill="#1D92E1"/>
<path d="M39 25.0654H24V76.7251H39V25.0654Z" fill="#1F9EF3"/>
</svg>
