<svg width="184" height="55" viewBox="0 0 184 55" fill="none" xmlns="http://www.w3.org/2000/svg">
<path d="M2.44321 35.1022C2.24299 35.1087 2.04584 35.0517 1.88001 34.9393C1.71417 34.8269 1.58816 34.6649 1.52001 34.4765C1.4086 34.1704 1.29548 33.9849 1.21205 34.001C1.12861 34.017 1.09225 34.2311 1.10221 34.5568C1.1087 34.757 1.05168 34.9542 0.939292 35.12C0.826908 35.2858 0.664933 35.4119 0.47656 35.48C0.170354 35.5914 -0.0150713 35.7045 0.000962193 35.788C0.0169957 35.8714 0.231123 35.9078 0.55678 35.8978C0.757007 35.8913 0.954159 35.9483 1.12 36.0607C1.28584 36.1731 1.41186 36.3351 1.48002 36.5234C1.59144 36.8296 1.70455 37.0151 1.78799 36.999C1.87142 36.983 1.90779 36.7689 1.89782 36.4432C1.89131 36.243 1.94833 36.0458 2.06072 35.88C2.1731 35.7142 2.33509 35.5881 2.52347 35.52C2.82964 35.4086 3.01507 35.2955 2.99904 35.212C2.98301 35.1286 2.76886 35.0922 2.44321 35.1022Z" fill="#1F9EF3"/>
<path d="M36 33.1879V24H63V33.1879H53.6522V55H45.3478V33.1879H36Z" fill="#1F9EF3"/>
<path d="M65 24H73.469V40.2283H73.7206L84.7887 24H92V55H83.531V38.7301H83.3213L72.0435 55H65V24Z" fill="#1F9EF3"/>
<path d="M118.542 29.2031C117.587 27.5644 116.18 26.2324 114.488 25.3646C112.607 24.4228 110.523 23.9554 108.419 24.0034H95V55H103.442V45.803H108.124C110.275 45.8509 112.407 45.3996 114.353 44.485C116.072 43.6591 117.516 42.3584 118.513 40.7379C119.535 38.9946 120.048 37.0025 119.996 34.985C120.041 32.9627 119.539 30.9657 118.542 29.2031ZM110.612 37.2553C110.227 37.8986 109.661 38.4154 108.984 38.7417C108.18 39.1129 107.3 39.294 106.413 39.2708H103.442V30.7424H106.413C107.297 30.7199 108.174 30.8906 108.984 31.2426C109.662 31.5467 110.231 32.0503 110.612 32.6857C110.984 33.3905 111.178 34.1746 111.178 34.9705C111.178 35.7664 110.984 36.5505 110.612 37.2553Z" fill="#1F9EF3"/>
<path d="M141.313 55L131.719 42.4751H130.499V55H122V24H130.499V35.6926H131.593L140.597 24H151.327L139.377 38.8967L152 55H141.313Z" fill="#1F9EF3"/>
<path d="M173.748 24H162.247L152 55H161.082L162.879 49.0492H173.121L174.918 55H184L173.748 24ZM164.782 42.7664L167.875 32.5293H168.125L171.218 42.7664H164.782Z" fill="#1F9EF3"/>
<path d="M22 0H35.8295V1.70998H23.9719V7.92568H30.1573C32.3899 7.92568 34.0872 8.38709 35.249 9.30994C35.8348 9.79341 36.2981 10.4096 36.6009 11.108C36.9038 11.8063 37.0374 12.5668 36.991 13.3272C37.0361 14.1282 36.8892 14.9285 36.5625 15.6606C36.2359 16.3927 35.7391 17.0353 35.1139 17.5344C33.862 18.5115 32.0657 19.0001 29.7251 19H22V0ZM29.698 17.3986C31.4446 17.3986 32.7636 17.0638 33.6551 16.3942C34.1039 16.0444 34.4605 15.5892 34.6936 15.0687C34.9268 14.5482 35.0293 13.9781 34.9922 13.4085C35.0308 12.8513 34.9313 12.2931 34.7027 11.7839C34.4741 11.2747 34.1234 10.8304 33.6821 10.4906C32.8085 9.84851 31.4805 9.52732 29.698 9.52708H23.9719V17.3986H29.698Z" fill="#1F9EF3"/>
<path d="M79 0V18.8093H76.9969V1.71952H67.7225L67.503 8.00725C67.4644 10.1125 67.2488 12.211 66.8582 14.2815C66.6533 15.5724 66.1202 16.7921 65.308 17.8285C64.9645 18.2135 64.5372 18.5184 64.0577 18.7206C63.5781 18.9229 63.0584 19.0174 62.5366 18.9974C62.0186 18.9944 61.5028 18.9313 61 18.8093L61.1648 17.036C61.4613 17.106 61.7651 17.1421 62.0701 17.1434C62.45 17.1515 62.8264 17.0703 63.1678 16.9066C63.5091 16.743 63.8054 16.5016 64.032 16.2028C64.6356 15.3298 65.0254 14.3321 65.1708 13.2874C65.4695 11.5595 65.6437 9.81303 65.6921 8.0611L65.9666 0H79Z" fill="#1F9EF3"/>
<path d="M98.2072 8.30556C99.402 9.31924 99.9996 10.8031 100 12.7571C100 14.8021 99.3659 16.3538 98.0977 17.4122C96.8291 18.4707 94.9997 19 92.6095 19H85V0H86.9982V6.78552H93.02C95.2825 6.78553 97.0116 7.29221 98.2072 8.30556ZM96.5921 16.2315C97.0688 15.7967 97.4406 15.2611 97.6799 14.6643C97.9192 14.0675 98.02 13.425 97.9745 12.7843C97.9745 9.87095 96.168 8.41423 92.5549 8.41414H86.9982V17.3986H92.5548C94.3245 17.3986 95.6702 17.0095 96.5921 16.2315Z" fill="#1F9EF3"/>
<path d="M127 0V19H104V0H105.957V17.2628H114.535V0H116.492V17.2628H125.043V0H127Z" fill="#1F9EF3"/>
<path d="M145.683 13.9242H135.29L133.052 19H131L139.528 0H141.473L150 19H147.922L145.683 13.9242ZM144.964 12.2956L140.487 2.08987L136.01 12.2956H144.964Z" fill="#1F9EF3"/>
<path d="M166 0V19H164.002V13.2456H158.283C158.027 13.2456 157.662 13.2275 157.188 13.1914L153.165 19H151.004L155.355 12.8385C154.053 12.4936 152.912 11.7119 152.126 10.6264C151.35 9.47641 150.958 8.11416 151.004 6.73137C151.004 4.5964 151.683 2.94066 153.043 1.76415C154.401 0.588214 156.239 0.000160004 158.557 0H166ZM154.411 10.2735C155.332 11.1149 156.677 11.5356 158.447 11.5356H164.002V1.73695H158.639C156.85 1.73695 155.468 2.15772 154.493 2.99926C153.566 3.98293 153.044 5.27462 153.029 6.62059C153.014 7.96656 153.507 9.26951 154.411 10.2735Z" fill="#1F9EF3"/>
<path d="M44.1284 18.6939C42.5606 17.8632 41.2558 16.624 40.3571 15.1124C39.4673 13.5505 39 11.7902 39 10C39 8.20978 39.4673 6.44953 40.3571 4.88764C41.256 3.37607 42.5607 2.13696 44.1284 1.30613C45.7847 0.450622 47.6273 0.00246122 49.4982 1.01088e-05C51.3692 -0.002441 53.213 0.44089 54.8716 1.29205C56.433 2.12632 57.7323 3.36493 58.6285 4.87357C59.5276 6.43757 60 8.20352 60 10C60 11.7965 59.5276 13.5624 58.6285 15.1264C57.7326 16.6353 56.4333 17.8741 54.8716 18.708C53.213 19.5591 51.3692 20.0024 49.4982 20C47.6273 19.9975 45.7847 19.5494 44.1284 18.6939ZM53.8 17.0929C55.0556 16.4107 56.0941 15.3993 56.7999 14.1715C57.5123 12.8927 57.8858 11.4581 57.8858 10.0001C57.8858 8.54209 57.5123 7.10753 56.7999 5.82876C56.094 4.60095 55.0555 3.58968 53.8 2.90735C52.4785 2.21564 51.0043 1.85386 49.5071 1.85386C48.01 1.85386 46.5358 2.21564 45.2143 2.90735C43.9504 3.58838 42.9024 4.59934 42.1858 5.82876C41.4642 7.10462 41.0856 8.54032 41.0856 10.0001C41.0856 11.4599 41.4642 12.8956 42.1858 14.1715C42.9023 15.401 43.9503 16.412 45.2143 17.0929C46.5359 17.7845 48.01 18.1461 49.5071 18.1461C51.0043 18.1461 52.4784 17.7845 53.8 17.0929Z" fill="#1F9EF3"/>
<path d="M54.7133 8.54573C54.7009 7.86981 54.5102 7.2091 54.1603 6.63034C53.8105 6.05158 53.3139 5.57526 52.7207 5.24948C50.5871 3.90284 49.4801 4.18423 49.4801 4.18423C49.3169 4.13795 49.1778 4.03073 49.0916 3.88478C49.0054 3.73884 48.9787 3.56538 49.0172 3.40035C49.1782 2.81748 50.4865 2.91798 51.7746 3.40035C53.0628 3.88273 54.9749 4.96809 55.8404 8.16385C56.0107 8.6617 56.0455 9.19581 55.9411 9.71147C55.9411 9.71147 55.8002 10.0532 55.1359 9.99286C54.4717 9.93257 54.7334 9.02811 54.7334 9.02811L54.7133 8.54573Z" fill="#1F9EF3"/>
<path d="M13.6468 34.0751C13.9209 34.3337 13.5472 35.2218 12.7345 36.4168C12.2334 37.1507 11.9775 38.0244 12.0033 38.9127C12.0291 39.8009 12.3354 40.6582 12.8782 41.3618C13.7589 42.5078 14.1836 43.3726 13.9249 43.6467C13.6663 43.9209 12.7783 43.5471 11.583 42.7344C10.8491 42.2334 9.97545 41.9775 9.0872 42.0033C8.19894 42.0292 7.34164 42.3354 6.63806 42.8782C5.49219 43.7589 4.62735 44.1836 4.35321 43.925C4.07907 43.6663 4.45281 42.7782 5.26554 41.583C5.76654 40.8491 6.02245 39.9755 5.99664 39.0872C5.97083 38.199 5.66461 37.3417 5.12184 36.6381C4.24114 35.4921 3.81639 34.6273 4.07504 34.3531C4.3337 34.079 5.22175 34.4527 6.41692 35.2654C7.15082 35.7665 8.02446 36.0224 8.91273 35.9966C9.801 35.9708 10.6583 35.6646 11.3619 35.1217C12.5078 34.2411 13.3726 33.8164 13.6468 34.0751Z" fill="#5AC4FF"/>
<path d="M17.2144 39.2752C16.9417 39.3224 16.6611 39.2821 16.4126 39.1601C16.1642 39.0381 15.9608 38.8405 15.8315 38.5958C15.6205 38.1982 15.4302 37.9661 15.3191 38.004C15.208 38.0419 15.1992 38.3419 15.2752 38.7856C15.3224 39.0583 15.2821 39.3389 15.1601 39.5874C15.038 39.8358 14.8405 40.0392 14.5958 40.1685C14.1982 40.3796 13.9661 40.5698 14.004 40.6809C14.0419 40.792 14.3419 40.8008 14.7856 40.7248C15.0583 40.6776 15.3389 40.7179 15.5874 40.8399C15.8358 40.962 16.0392 41.1595 16.1685 41.4042C16.3796 41.8018 16.5699 42.0339 16.681 41.996C16.7921 41.9581 16.8008 41.6581 16.7249 41.2144C16.6776 40.9417 16.7179 40.661 16.8399 40.4126C16.962 40.1642 17.1595 39.9608 17.4042 39.8315C17.8018 39.6205 18.0339 39.4302 17.996 39.3191C17.9581 39.208 17.6581 39.1992 17.2144 39.2752Z" fill="#1F9EF3"/>
<path d="M14.1361 32.4554C14.381 32.2682 14.618 32.0932 14.8471 31.9306C15.0756 31.7019 15.3236 31.4933 15.5883 31.3073C16.6396 30.6025 17.8868 30.2443 19.1538 30.2833C19.8924 30.2706 20.6275 30.386 21.3263 30.6245C21.9262 30.8338 22.4777 31.161 22.948 31.5866C23.4013 32.0046 23.7624 32.5118 24.0082 33.0761C24.2722 33.6865 24.4304 34.337 24.4761 35H33C32.8733 33.2287 32.4076 31.4978 31.6278 29.9005C30.9069 28.4529 29.8908 27.1706 28.6444 26.1354C27.3638 25.0863 25.892 24.2927 24.3096 23.7978C22.561 23.252 20.7369 22.9832 18.9043 23.0014C16.276 22.9665 13.681 23.5889 11.3573 24.8115C9.07925 26.0367 7.20847 27.8947 5.97283 30.1591C5.58718 30.8511 5.26172 31.5748 5 32.3221C5.19084 32.4436 5.38249 32.5664 5.58389 32.7027C6.85316 33.565 8.36413 34.0055 9.90037 33.9611C11.4366 33.9167 12.9193 33.3896 14.1361 32.4554ZM8.52923 30.2177C8.72552 30.147 8.89431 30.0164 9.01141 29.8444C9.12852 29.6725 9.18795 29.4681 9.18118 29.2605C9.17081 28.9227 9.2087 28.7007 9.29565 28.684C9.3826 28.6674 9.50048 28.8597 9.61657 29.1772C9.68757 29.3725 9.81888 29.5405 9.9917 29.657C10.1645 29.7736 10.37 29.8327 10.5786 29.8259C10.9179 29.8156 11.1411 29.8533 11.1578 29.9398C11.1745 30.0264 10.9813 30.1437 10.6622 30.2592C10.4659 30.3298 10.2971 30.4605 10.18 30.6325C10.0629 30.8044 10.0035 31.0088 10.0103 31.2165C10.0206 31.5541 9.98274 31.7762 9.89579 31.7928C9.80884 31.8094 9.69097 31.6171 9.57488 31.2997C9.50385 31.1043 9.37252 30.9364 9.19971 30.8198C9.02689 30.7033 8.82145 30.6442 8.6128 30.6509C8.27348 30.6612 8.05034 30.6235 8.03361 30.537C8.01691 30.4505 8.21012 30.3332 8.52923 30.2177Z" fill="#1F9EF3"/>
<path d="M23.7896 44.849C23.508 45.386 23.1253 45.8609 22.6634 46.2464C22.1828 46.6428 21.6326 46.942 21.0423 47.1278C20.3599 47.3382 19.6497 47.4397 18.9369 47.4288C17.6843 47.4679 16.449 47.1235 15.3896 46.4399C15.0784 46.2274 14.7902 45.9815 14.5301 45.7065C14.4475 45.6505 14.3699 45.6015 14.2856 45.5429C13.0002 44.6468 11.4702 44.1891 9.91462 44.2353C8.35903 44.2815 6.85765 44.8292 5.62548 45.8C5.41073 45.9686 5.20286 46.1259 5 46.2753C5.18396 46.7126 5.37959 47.1403 5.60042 47.5473C6.83568 49.8981 8.716 51.8296 11.0107 53.1047C13.3853 54.3896 16.0395 55.0404 18.7265 54.9966C20.7939 55.0397 22.8497 54.671 24.779 53.9111C26.4064 53.2568 27.8936 52.2857 29.158 51.0517C30.2963 49.9369 31.224 48.6177 31.8948 47.1601C32.5058 45.8528 32.8802 44.4434 33 43H24.3686C24.2834 43.6463 24.0874 44.2722 23.7896 44.849Z" fill="#1F9EF3"/>
<path d="M4.62885 38.7348C4.49536 38.7391 4.36393 38.7011 4.25337 38.6262C4.14282 38.5513 4.05881 38.4433 4.01338 38.3177C3.9391 38.1136 3.86366 37.99 3.80806 38.0006C3.75247 38.0113 3.72821 38.1541 3.73484 38.3712C3.73916 38.5047 3.70114 38.6361 3.62622 38.7467C3.5513 38.8572 3.44332 38.9412 3.31773 38.9867C3.11359 39.0609 2.98998 39.1364 3.00064 39.192C3.01129 39.2476 3.15408 39.2718 3.37118 39.2652C3.50466 39.2609 3.6361 39.2989 3.74666 39.3738C3.85722 39.4487 3.94123 39.5567 3.98667 39.6823C4.06095 39.8864 4.13639 40.01 4.19198 39.9994C4.24758 39.9887 4.27183 39.8459 4.26521 39.6288C4.26088 39.4953 4.29889 39.3639 4.37382 39.2533C4.44874 39.1428 4.55673 39.0588 4.68232 39.0133C4.88643 38.9391 5.01005 38.8637 4.99936 38.808C4.98867 38.7524 4.84595 38.7282 4.62885 38.7348Z" fill="#1F9EF3"/>
</svg>
