<svg width="1920" height="1837" viewBox="0 0 1920 1837" fill="none" xmlns="http://www.w3.org/2000/svg">
<path fill-rule="evenodd" clip-rule="evenodd" d="M-232.74 171.529C-192.663 112.476 28.0798 183.611 344.762 343.836C539.347 442.637 749.447 489.334 944.972 477.238C1140.5 465.142 1311.41 394.877 1433.25 276.501C1631.91 84.4168 1925.06 -39.6255 2002.26 12.1742L1981.32 887.91L1997.61 886.796L2005.76 1824.03C1917.22 1877.3 1740.61 1761.93 1532.94 1536.43C1405.61 1397.5 1221.04 1309.35 1005.68 1284.6C790.316 1259.86 555.209 1299.79 334.029 1398.68C-25.8944 1558.97 -274.27 1625.5 -314.911 1557.39C-353.713 1492.36 -349.566 1288.74 -78.8524 1058.86L-232.74 171.529Z" fill="#333333"/>
</svg>
