<svg width="30" height="31" viewBox="0 0 30 31" fill="none" xmlns="http://www.w3.org/2000/svg">
<path d="M12.4202 2.41843C12.5903 1.86666 12.9326 1.38394 13.3969 1.04106C13.8612 0.698186 14.423 0.513184 15 0.513184C15.577 0.513184 16.1389 0.698186 16.6031 1.04106C17.0674 1.38394 17.4097 1.86666 17.5798 2.41843L19.1997 7.72185C19.5497 8.8726 20.5996 9.66311 21.7795 9.66311H27.2891C29.8789 9.66311 30.9888 12.9953 28.9289 14.5963L24.2493 18.2286C23.8071 18.5747 23.4804 19.0471 23.3125 19.5832C23.1447 20.1193 23.1436 20.6938 23.3094 21.2306L25.0392 26.9243C25.8192 29.4859 22.9094 31.5472 20.8096 29.9262L16.6399 26.6841C16.1711 26.319 15.594 26.1207 15 26.1207C14.406 26.1207 13.8289 26.319 13.3601 26.6841L9.19045 29.9162C7.09061 31.5472 4.19083 29.4859 4.96077 26.9243L6.69064 21.2206C6.85422 20.6852 6.85198 20.1128 6.6842 19.5788C6.51643 19.0447 6.19098 18.574 5.75071 18.2286L1.07107 14.5963C-0.988768 12.9953 0.121147 9.66311 2.71095 9.66311H8.21052C8.79342 9.66132 9.36021 9.47148 9.82675 9.12177C10.2933 8.77207 10.6347 8.28114 10.8003 7.72185L12.4202 2.41843Z" fill="#01F061"/>
</svg>
