<svg width="372" height="408" viewBox="0 0 372 408" fill="none" xmlns="http://www.w3.org/2000/svg">
<path d="M372 205.889C371.913 217.222 347.046 227.146 307.796 233.675C283.654 237.639 261.279 249.865 243.873 268.602C226.468 287.339 214.925 311.625 210.899 337.982C204.278 380.836 194.796 407.886 184.443 407.791C174.089 407.696 165.024 380.474 159.058 337.504C155.434 311.078 144.264 286.584 127.148 267.531C110.031 248.478 87.8468 235.843 63.7698 231.435C24.6253 224.186 -0.0865758 213.808 0.000227937 202.474C0.0870317 191.141 24.9537 181.216 64.2086 174.686C88.3487 170.72 110.724 158.493 128.129 139.757C145.534 121.021 157.076 96.7363 161.104 70.3808C167.727 27.5268 177.207 0.47377 187.561 0.568792C197.914 0.663814 206.98 27.8852 212.945 70.8541C216.567 97.2814 227.735 121.776 244.851 140.83C261.967 159.884 284.153 172.519 308.23 176.926C347.375 184.174 372.087 194.554 372 205.889Z" fill="white"/>
</svg>
