<svg width="246" height="236" viewBox="0 0 246 236" fill="none" xmlns="http://www.w3.org/2000/svg">
<path d="M67.0403 108.307C66.9717 102.437 78.7054 97.0768 97.3143 93.3467C108.761 91.0789 119.286 84.5483 127.385 74.6905C135.484 64.8326 140.739 52.1535 142.399 38.4687C145.133 16.2178 149.382 2.1258 154.308 2.08285C159.234 2.0399 163.811 16.0558 167.066 38.2548C169.046 51.9075 174.597 64.4923 182.924 74.2065C191.252 83.9208 201.928 90.2663 213.425 92.3346C232.117 95.74 243.974 100.894 244.042 106.764C244.111 112.634 232.377 117.995 213.766 121.726C202.321 123.995 191.795 130.525 183.697 140.383C175.598 150.24 170.343 162.919 168.682 176.603C165.947 198.854 161.699 212.947 156.773 212.99C151.847 213.033 147.27 199.017 144.015 176.819C142.037 163.166 136.486 150.581 128.159 140.866C119.831 131.151 109.155 124.806 97.6578 122.738C78.9656 119.333 67.1089 114.177 67.0403 108.307Z" fill="white"/>
<path d="M3.31623e-05 205.072C0.0119313 203.403 3.42113 201.941 8.80221 200.979C12.1119 200.396 15.1795 198.595 17.5658 195.835C19.952 193.076 21.5345 189.499 22.0864 185.617C22.9942 179.305 24.2941 175.321 25.7135 175.335C27.133 175.349 28.3757 179.358 29.1937 185.687C29.6905 189.579 31.2218 193.187 33.5684 195.993C35.9151 198.799 38.9565 200.66 42.2574 201.309C47.624 202.377 51.0119 203.905 51 205.575C50.9881 207.244 47.5789 208.706 42.1972 209.667C38.8877 210.252 35.8201 212.052 33.4339 214.812C31.0478 217.571 29.4654 221.148 28.9132 225.03C28.0051 231.341 26.7054 235.326 25.286 235.312C23.8666 235.298 22.6237 231.288 21.8059 224.96C21.3094 221.068 19.7783 217.46 17.4317 214.654C15.0851 211.847 12.0436 209.987 8.74264 209.337C3.37605 208.27 -0.0118688 206.741 3.31623e-05 205.072Z" fill="white"/>
</svg>
