<svg width="72" height="95" viewBox="0 0 72 95" fill="none" xmlns="http://www.w3.org/2000/svg">
<path d="M72 48.0918C71.9832 50.703 67.1702 52.9894 59.5733 54.4935C54.9008 55.4069 50.5701 58.2237 47.2013 62.5406C43.8324 66.8574 41.5984 72.4527 40.8192 78.5251C39.5376 88.3984 37.7024 94.6304 35.6986 94.6085C33.6946 94.5866 31.9401 88.315 30.7854 78.415C30.084 72.3266 27.9221 66.6833 24.6093 62.2937C21.2964 57.904 17.0026 54.993 12.3426 53.9775C4.76619 52.3074 -0.0167566 49.9163 4.41169e-05 47.3052C0.0168448 44.694 4.82975 42.4074 12.4275 40.903C17.0998 39.9892 21.4304 37.1723 24.7992 32.8557C28.1679 28.539 30.4018 22.944 31.1814 16.8719C32.4633 6.99866 34.2982 0.765854 36.3021 0.787747C38.3059 0.809639 40.0607 7.08124 41.2152 16.9809C41.9161 23.0696 44.0777 28.713 47.3905 33.1028C50.7033 37.4927 54.9973 40.4037 59.6574 41.419C67.2338 43.089 72.0168 45.4805 72 48.0918Z" fill="white"/>
</svg>
