<svg width="40" height="42" viewBox="0 0 40 42" fill="none" xmlns="http://www.w3.org/2000/svg">
<path d="M20 0C31.0456 0 40 8.78311 40 19.6176C40 30.4522 31.0457 39.2356 20 39.2356C17.295 39.2356 14.7168 38.7068 12.3638 37.7518L1.27406 42L3.98427 31.3663C1.48295 28.0913 6.40887e-10 24.0249 6.40887e-10 19.6176C-8.74735e-05 8.78319 8.95429 0 20 0ZM20 0.858018C17.4177 0.858018 14.9131 1.35387 12.5558 2.33192C10.2785 3.27669 8.23307 4.62944 6.47632 6.3526C4.71958 8.07576 3.34046 10.0821 2.37728 12.3158C1.38025 14.628 0.874654 17.0848 0.874654 19.6176C0.874654 23.704 2.19201 27.5886 4.68433 30.8519L4.9338 31.1785L4.83295 31.5745L2.53343 40.5965L12.0455 36.9526L12.3732 36.8271L12.6982 36.959C15.0177 37.9004 17.4744 38.3776 20 38.3776C22.5823 38.3776 25.0868 37.8818 27.4441 36.9037C29.7214 35.9588 31.7669 34.6061 33.5236 32.883C35.2803 31.1598 36.6595 29.1534 37.6226 26.9196C38.6197 24.6074 39.1253 22.1506 39.1253 19.6176C39.1253 17.0847 38.6197 14.628 37.6226 12.3158C36.6594 10.0821 35.2803 8.07576 33.5236 6.3526C31.7669 4.62944 29.7214 3.27669 27.4441 2.33192C25.0868 1.35395 22.5823 0.858018 20 0.858018Z" fill="#01F061"/>
<path d="M20.5 4C11.3873 4 4 11.2628 4 20.2218C4 24.3553 5.57322 28.1268 8.16205 30.9914L6.42775 37L12.7705 34.556C15.0765 35.7604 17.7068 36.4438 20.5 36.4438C29.6127 36.4438 37 29.1809 37 20.2218C37 11.2628 29.6127 4 20.5 4ZM27.2472 29.7801C25.3407 29.8495 21.5928 29.4037 16.8098 24.994C12.2672 20.6245 11.8711 16.6071 11.9417 14.7326C12.0124 12.8555 14.4874 11.3955 14.4874 11.3955L16.6795 11.5345C16.6795 11.5345 17.8817 14.8717 18.306 15.7059C18.7303 16.5402 18.4474 16.8879 18.4474 16.8879C18.4474 16.8879 17.1746 18.3478 16.8917 18.5564C16.6089 18.765 16.6786 18.9878 16.7503 19.1126C17.4542 20.3368 18.8201 21.8045 19.4223 22.4258C20.0543 23.0177 21.5471 24.3608 22.7924 25.0527C22.9193 25.1231 23.146 25.1917 23.3581 24.9137C23.5702 24.6357 25.0552 23.3841 25.0552 23.3841C25.0552 23.3841 25.4088 23.1061 26.2574 23.5232C27.1059 23.9403 30.5003 25.1221 30.5003 25.1221L30.6417 27.2773C30.6415 27.2773 29.1565 29.7106 27.2472 29.7801Z" fill="#01F061"/>
</svg>
