<?xml version="1.0" encoding="utf-8"?><svg xmlns="http://www.w3.org/2000/svg" xmlns:xlink="http://www.w3.org/1999/xlink"><symbol viewBox="0 0 64 64" id="calendar" xmlns="http://www.w3.org/2000/svg"><path d="M11 54h6a1 1 0 001-1v-5a1 1 0 00-1-1h-6a1 1 0 00-1 1v5a1 1 0 001 1zm1-5h4v3h-4v-3zm11 5h6a1 1 0 001-1v-5a1 1 0 00-1-1h-6a1 1 0 00-1 1v5a1 1 0 001 1zm1-5h4v3h-4v-3zm11 5h6a1 1 0 001-1v-5a1 1 0 00-1-1h-6a1 1 0 00-1 1v5a1 1 0 001 1zm1-5h4v3h-4v-3zm-25-6h6a1 1 0 001-1v-5a1 1 0 00-1-1h-6a1 1 0 00-1 1v5a1 1 0 001 1zm1-5h4v3h-4v-3zm11 5h6a1 1 0 001-1v-5a1 1 0 00-1-1h-6a1 1 0 00-1 1v5a1 1 0 001 1zm1-5h4v3h-4v-3zm11 5h6a1 1 0 001-1v-5a1 1 0 00-1-1h-6a1 1 0 00-1 1v5a1 1 0 001 1zm1-5h4v3h-4v-3zm11 5h6a1 1 0 001-1v-5a1 1 0 00-1-1h-6a1 1 0 00-1 1v5a1 1 0 001 1zm1-5h4v3h-4v-3zm-37-6h6a1 1 0 001-1v-5a1 1 0 00-1-1h-6a1 1 0 00-1 1v5a1 1 0 001 1zm1-5h4v3h-4v-3zm11 5h6a1 1 0 001-1v-5a1 1 0 00-1-1h-6a1 1 0 00-1 1v5a1 1 0 001 1zm1-5h4v3h-4v-3zm11 5h6a1 1 0 001-1v-5a1 1 0 00-1-1h-6a1 1 0 00-1 1v5a1 1 0 001 1zm1-5h4v3h-4v-3zm11 5h6a1 1 0 001-1v-5a1 1 0 00-1-1h-6a1 1 0 00-1 1v5a1 1 0 001 1zm1-5h4v3h-4v-3z"/><path d="M60 4h-7V3a3 3 0 10-6 0v1H17V3a3 3 0 10-6 0v1H4C1.789 4 0 5.789 0 8v52c0 2.211 1.789 4 4 4h56c2.211 0 4-1.789 4-4V8c0-2.211-1.789-4-4-4zM49 3a1 1 0 112 0v7a1 1 0 11-2 0V3zM13 3a1 1 0 112 0v7a1 1 0 11-2 0V3zm49 57a2 2 0 01-2 2H4a2 2 0 01-2-2V17h60v43zm0-45H2V8a2 2 0 012-2h7v4a3 3 0 106 0V6h30v4a3 3 0 106 0V6h7a2 2 0 012 2v7z"/></symbol><symbol viewBox="0 0 24 24" id="clock" xmlns="http://www.w3.org/2000/svg"><path d="M12 2c5.514 0 10 4.486 10 10s-4.486 10-10 10S2 17.514 2 12 6.486 2 12 2zm0-2C5.373 0 0 5.373 0 12s5.373 12 12 12 12-5.373 12-12S18.627 0 12 0zm5.848 12.459c.202.038.202.333.001.372-1.907.361-6.045 1.111-6.547 1.111a1.3 1.3 0 01-1.301-1.301c0-.512.77-5.447 1.125-7.445.034-.192.312-.181.343.014l.985 6.238 5.394 1.011z"/></symbol><symbol viewBox="0 0 24 24" id="comments" xmlns="http://www.w3.org/2000/svg"><path d="M12 3c5.514 0 10 3.592 10 8.007 0 4.917-5.145 7.961-9.91 7.961-1.937 0-3.383-.397-4.394-.644-1 .613-1.595 1.037-4.272 1.82.535-1.373.723-2.748.602-4.265-.838-1-2.025-2.4-2.025-4.872C2 6.592 6.486 3 12 3zm0-2C5.662 1 0 5.226 0 11.007c0 2.05.738 4.063 2.047 5.625.055 1.83-1.023 4.456-1.993 6.368 2.602-.47 6.301-1.508 7.978-2.536 1.418.345 2.775.503 4.059.503 7.084 0 11.91-4.837 11.91-9.961C24 5.195 18.299 1 12 1zM8.5 11a1.5 1.5 0 11-2.999.001A1.5 1.5 0 018.5 11zM12 9.5a1.5 1.5 0 100 3 1.5 1.5 0 000-3zm5 0a1.5 1.5 0 100 3 1.5 1.5 0 000-3z"/></symbol><symbol clip-rule="evenodd" fill-rule="evenodd" stroke-linejoin="round" stroke-miterlimit="2" viewBox="0 0 24 24" id="eye" xmlns="http://www.w3.org/2000/svg"><path d="M11.998 5C7.92 5 4.256 8.093 2.145 11.483a1 1 0 00-.001 1.034C4.256 15.907 7.92 19 11.998 19c4.143 0 7.796-3.09 9.864-6.493a1 1 0 000-1.014C19.794 8.09 16.141 5 11.998 5zm8.413 7c-1.837 2.878-4.897 5.5-8.413 5.5-3.465 0-6.532-2.632-8.404-5.5 1.871-2.868 4.939-5.5 8.404-5.5 3.518 0 6.579 2.624 8.413 5.5zM12 8c2.208 0 4 1.792 4 4s-1.792 4-4 4-4-1.792-4-4 1.792-4 4-4zm0 1.5a2.5 2.5 0 000 5 2.5 2.5 0 000-5z" fill-rule="nonzero"/></symbol><symbol viewBox="0 0 24 24" id="instagram" xmlns="http://www.w3.org/2000/svg"><path d="M12 2.163c3.204 0 3.584.012 4.85.07 3.252.148 4.771 1.691 4.919 4.919.058 1.265.069 1.645.069 4.849 0 3.205-.012 3.584-.069 4.849-.149 3.225-1.664 4.771-4.919 4.919-1.266.058-1.644.07-4.85.07-3.204 0-3.584-.012-4.849-.07-3.26-.149-4.771-1.699-4.919-4.92-.058-1.265-.07-1.644-.07-4.849 0-3.204.013-3.583.07-4.849.149-3.227 1.664-4.771 4.919-4.919 1.266-.057 1.645-.069 4.849-.069zM12 0C8.741 0 8.333.014 7.053.072 2.695.272.273 2.69.073 7.052.014 8.333 0 8.741 0 12c0 3.259.014 3.668.072 4.948.2 4.358 2.618 6.78 6.98 6.98C8.333 23.986 8.741 24 12 24c3.259 0 3.668-.014 4.948-.072 4.354-.2 6.782-2.618 6.979-6.98.059-1.28.073-1.689.073-4.948 0-3.259-.014-3.667-.072-4.947-.196-4.354-2.617-6.78-6.979-6.98C15.668.014 15.259 0 12 0zm0 5.838a6.162 6.162 0 100 12.324 6.162 6.162 0 000-12.324zM12 16a4 4 0 110-8 4 4 0 010 8zm6.406-11.845a1.44 1.44 0 100 2.881 1.44 1.44 0 000-2.881z"/></symbol><symbol fill-rule="evenodd" clip-rule="evenodd" stroke-linejoin="round" stroke-miterlimit="1.414" viewBox="0 0 24 24" id="telegram" xmlns="http://www.w3.org/2000/svg"><path d="M18.384 22.779a1.19 1.19 0 001.107.145 1.16 1.16 0 00.724-.84C21.084 18 23.192 7.663 23.983 3.948a.78.78 0 00-.26-.758.8.8 0 00-.797-.14C18.733 4.602 5.82 9.447.542 11.4a.827.827 0 00-.542.799c.012.354.25.661.593.764 2.367.708 5.474 1.693 5.474 1.693s1.452 4.385 2.209 6.615c.095.28.314.5.603.576a.866.866 0 00.811-.207l3.096-2.923s3.572 2.619 5.598 4.062zm-11.01-8.677l1.679 5.538.373-3.507 10.185-9.186a.277.277 0 00.033-.377.284.284 0 00-.376-.064L7.374 14.102z"/></symbol><symbol viewBox="0 0 24 24" id="vk" xmlns="http://www.w3.org/2000/svg"><path class="gst0" d="M13.162 18.994c.609 0 .858-.406.851-.915-.031-1.917.714-2.949 2.059-1.604 1.488 1.488 1.796 2.519 3.603 2.519h3.2c.808 0 1.126-.26 1.126-.668 0-.863-1.421-2.386-2.625-3.504-1.686-1.565-1.765-1.602-.313-3.486C22.864 8.997 25.22 6 23.136 6h-3.981c-.772 0-.828.435-1.103 1.083-.995 2.347-2.886 5.387-3.604 4.922-.751-.485-.407-2.406-.35-5.261.015-.754.011-1.271-1.141-1.539A8.07 8.07 0 0011.148 5c-2.273 0-3.841.953-2.95 1.119 1.571.293 1.42 3.692 1.054 5.16-.638 2.556-3.036-2.024-4.035-4.305C4.976 6.426 4.902 6 4.042 6H.787C.295 6 0 6.16 0 6.516c0 .602 2.96 6.72 5.786 9.77 2.756 2.975 5.48 2.708 7.376 2.708z"/></symbol></svg>